G04 #@! TF.FileFunction,Legend,Bot*
%FSLAX46Y46*%
G04 Gerber Fmt 4.6, Leading zero omitted, Abs format (unit mm)*
G04 Created by KiCad (PCBNEW 4.0.6-e0-6349~53~ubuntu16.04.1) date Wed May 31 11:55:21 2017*
%MOMM*%
%LPD*%
G01*
G04 APERTURE LIST*
%ADD10C,0.100000*%
%ADD11C,0.330200*%
%ADD12C,0.254000*%
%ADD13C,0.300000*%
G04 APERTURE END LIST*
D10*
D11*
X8678333Y-60409667D02*
X8593667Y-60155667D01*
X8593667Y-59732334D01*
X8678333Y-59563001D01*
X8763000Y-59478334D01*
X8932333Y-59393667D01*
X9101667Y-59393667D01*
X9271000Y-59478334D01*
X9355667Y-59563001D01*
X9440333Y-59732334D01*
X9525000Y-60071001D01*
X9609667Y-60240334D01*
X9694333Y-60325001D01*
X9863667Y-60409667D01*
X10033000Y-60409667D01*
X10202333Y-60325001D01*
X10287000Y-60240334D01*
X10371667Y-60071001D01*
X10371667Y-59647667D01*
X10287000Y-59393667D01*
X8593667Y-57869668D02*
X9525000Y-57869668D01*
X9694333Y-57954334D01*
X9779000Y-58123668D01*
X9779000Y-58462334D01*
X9694333Y-58631668D01*
X8678333Y-57869668D02*
X8593667Y-58039001D01*
X8593667Y-58462334D01*
X8678333Y-58631668D01*
X8847667Y-58716334D01*
X9017000Y-58716334D01*
X9186333Y-58631668D01*
X9271000Y-58462334D01*
X9271000Y-58039001D01*
X9355667Y-57869668D01*
X9779000Y-57023001D02*
X8001000Y-57023001D01*
X9694333Y-57023001D02*
X9779000Y-56853667D01*
X9779000Y-56515001D01*
X9694333Y-56345667D01*
X9609667Y-56261001D01*
X9440333Y-56176334D01*
X8932333Y-56176334D01*
X8763000Y-56261001D01*
X8678333Y-56345667D01*
X8593667Y-56515001D01*
X8593667Y-56853667D01*
X8678333Y-57023001D01*
X9779000Y-55668334D02*
X9779000Y-54991000D01*
X8593667Y-55414334D02*
X10117667Y-55414334D01*
X10287000Y-55329667D01*
X10371667Y-55160334D01*
X10371667Y-54991000D01*
X8593667Y-54144334D02*
X8678333Y-54313667D01*
X8847667Y-54398334D01*
X10371667Y-54398334D01*
X9779000Y-52705001D02*
X8593667Y-52705001D01*
X9779000Y-53467001D02*
X8847667Y-53467001D01*
X8678333Y-53382334D01*
X8593667Y-53213001D01*
X8593667Y-52959001D01*
X8678333Y-52789667D01*
X8763000Y-52705001D01*
X8593667Y-52027667D02*
X9779000Y-51096334D01*
X9779000Y-52027667D02*
X8593667Y-51096334D01*
X8593667Y-49064334D02*
X10371667Y-49064334D01*
X9525000Y-49064334D02*
X9525000Y-48048334D01*
X8593667Y-48048334D02*
X10371667Y-48048334D01*
X8678333Y-46524333D02*
X8593667Y-46693667D01*
X8593667Y-47032333D01*
X8678333Y-47201667D01*
X8847667Y-47286333D01*
X9525000Y-47286333D01*
X9694333Y-47201667D01*
X9779000Y-47032333D01*
X9779000Y-46693667D01*
X9694333Y-46524333D01*
X9525000Y-46439667D01*
X9355667Y-46439667D01*
X9186333Y-47286333D01*
X8593667Y-44915667D02*
X9525000Y-44915667D01*
X9694333Y-45000333D01*
X9779000Y-45169667D01*
X9779000Y-45508333D01*
X9694333Y-45677667D01*
X8678333Y-44915667D02*
X8593667Y-45085000D01*
X8593667Y-45508333D01*
X8678333Y-45677667D01*
X8847667Y-45762333D01*
X9017000Y-45762333D01*
X9186333Y-45677667D01*
X9271000Y-45508333D01*
X9271000Y-45085000D01*
X9355667Y-44915667D01*
X9779000Y-44323000D02*
X9779000Y-43645666D01*
X10371667Y-44069000D02*
X8847667Y-44069000D01*
X8678333Y-43984333D01*
X8593667Y-43815000D01*
X8593667Y-43645666D01*
X8678333Y-42375666D02*
X8593667Y-42545000D01*
X8593667Y-42883666D01*
X8678333Y-43053000D01*
X8847667Y-43137666D01*
X9525000Y-43137666D01*
X9694333Y-43053000D01*
X9779000Y-42883666D01*
X9779000Y-42545000D01*
X9694333Y-42375666D01*
X9525000Y-42291000D01*
X9355667Y-42291000D01*
X9186333Y-43137666D01*
X8593667Y-41529000D02*
X9779000Y-41529000D01*
X9440333Y-41529000D02*
X9609667Y-41444333D01*
X9694333Y-41359666D01*
X9779000Y-41190333D01*
X9779000Y-41021000D01*
D12*
X5624286Y-56433357D02*
X5569857Y-56487786D01*
X5515429Y-56651072D01*
X5515429Y-56759929D01*
X5569857Y-56923214D01*
X5678714Y-57032072D01*
X5787571Y-57086500D01*
X6005286Y-57140929D01*
X6168571Y-57140929D01*
X6386286Y-57086500D01*
X6495143Y-57032072D01*
X6604000Y-56923214D01*
X6658429Y-56759929D01*
X6658429Y-56651072D01*
X6604000Y-56487786D01*
X6549571Y-56433357D01*
X5515429Y-55780214D02*
X5569857Y-55889072D01*
X5624286Y-55943500D01*
X5733143Y-55997929D01*
X6059714Y-55997929D01*
X6168571Y-55943500D01*
X6223000Y-55889072D01*
X6277429Y-55780214D01*
X6277429Y-55616929D01*
X6223000Y-55508072D01*
X6168571Y-55453643D01*
X6059714Y-55399214D01*
X5733143Y-55399214D01*
X5624286Y-55453643D01*
X5569857Y-55508072D01*
X5515429Y-55616929D01*
X5515429Y-55780214D01*
X6277429Y-55018214D02*
X5515429Y-54800500D01*
X6059714Y-54582786D01*
X5515429Y-54365071D01*
X6277429Y-54147357D01*
X5569857Y-53276500D02*
X5515429Y-53385357D01*
X5515429Y-53603071D01*
X5569857Y-53711928D01*
X5678714Y-53766357D01*
X6114143Y-53766357D01*
X6223000Y-53711928D01*
X6277429Y-53603071D01*
X6277429Y-53385357D01*
X6223000Y-53276500D01*
X6114143Y-53222071D01*
X6005286Y-53222071D01*
X5896429Y-53766357D01*
X5569857Y-52296786D02*
X5515429Y-52405643D01*
X5515429Y-52623357D01*
X5569857Y-52732214D01*
X5678714Y-52786643D01*
X6114143Y-52786643D01*
X6223000Y-52732214D01*
X6277429Y-52623357D01*
X6277429Y-52405643D01*
X6223000Y-52296786D01*
X6114143Y-52242357D01*
X6005286Y-52242357D01*
X5896429Y-52786643D01*
X6277429Y-51915786D02*
X6277429Y-51480357D01*
X6658429Y-51752500D02*
X5678714Y-51752500D01*
X5569857Y-51698072D01*
X5515429Y-51589214D01*
X5515429Y-51480357D01*
X5515429Y-50609500D02*
X6114143Y-50609500D01*
X6223000Y-50663929D01*
X6277429Y-50772786D01*
X6277429Y-50990500D01*
X6223000Y-51099357D01*
X5569857Y-50609500D02*
X5515429Y-50718357D01*
X5515429Y-50990500D01*
X5569857Y-51099357D01*
X5678714Y-51153786D01*
X5787571Y-51153786D01*
X5896429Y-51099357D01*
X5950857Y-50990500D01*
X5950857Y-50718357D01*
X6005286Y-50609500D01*
X5515429Y-49194357D02*
X6658429Y-49194357D01*
X6114143Y-49194357D02*
X6114143Y-48541214D01*
X5515429Y-48541214D02*
X6658429Y-48541214D01*
X6277429Y-48105785D02*
X5515429Y-47833642D01*
X6277429Y-47561500D02*
X5515429Y-47833642D01*
X5243286Y-47942500D01*
X5188857Y-47996928D01*
X5134429Y-48105785D01*
X5515429Y-46636214D02*
X6658429Y-46636214D01*
X5569857Y-46636214D02*
X5515429Y-46745071D01*
X5515429Y-46962785D01*
X5569857Y-47071643D01*
X5624286Y-47126071D01*
X5733143Y-47180500D01*
X6059714Y-47180500D01*
X6168571Y-47126071D01*
X6223000Y-47071643D01*
X6277429Y-46962785D01*
X6277429Y-46745071D01*
X6223000Y-46636214D01*
X5515429Y-46091928D02*
X6277429Y-46091928D01*
X6059714Y-46091928D02*
X6168571Y-46037500D01*
X6223000Y-45983071D01*
X6277429Y-45874214D01*
X6277429Y-45765357D01*
X5515429Y-45221071D02*
X5569857Y-45329929D01*
X5624286Y-45384357D01*
X5733143Y-45438786D01*
X6059714Y-45438786D01*
X6168571Y-45384357D01*
X6223000Y-45329929D01*
X6277429Y-45221071D01*
X6277429Y-45057786D01*
X6223000Y-44948929D01*
X6168571Y-44894500D01*
X6059714Y-44840071D01*
X5733143Y-44840071D01*
X5624286Y-44894500D01*
X5569857Y-44948929D01*
X5515429Y-45057786D01*
X5515429Y-45221071D01*
X5515429Y-44186928D02*
X5569857Y-44295786D01*
X5678714Y-44350214D01*
X6658429Y-44350214D01*
X5515429Y-43588214D02*
X5569857Y-43697072D01*
X5624286Y-43751500D01*
X5733143Y-43805929D01*
X6059714Y-43805929D01*
X6168571Y-43751500D01*
X6223000Y-43697072D01*
X6277429Y-43588214D01*
X6277429Y-43424929D01*
X6223000Y-43316072D01*
X6168571Y-43261643D01*
X6059714Y-43207214D01*
X5733143Y-43207214D01*
X5624286Y-43261643D01*
X5569857Y-43316072D01*
X5515429Y-43424929D01*
X5515429Y-43588214D01*
X6277429Y-42227500D02*
X5352143Y-42227500D01*
X5243286Y-42281929D01*
X5188857Y-42336357D01*
X5134429Y-42445214D01*
X5134429Y-42608500D01*
X5188857Y-42717357D01*
X5569857Y-42227500D02*
X5515429Y-42336357D01*
X5515429Y-42554071D01*
X5569857Y-42662929D01*
X5624286Y-42717357D01*
X5733143Y-42771786D01*
X6059714Y-42771786D01*
X6168571Y-42717357D01*
X6223000Y-42662929D01*
X6277429Y-42554071D01*
X6277429Y-42336357D01*
X6223000Y-42227500D01*
X5515429Y-41683214D02*
X6277429Y-41683214D01*
X6658429Y-41683214D02*
X6604000Y-41737643D01*
X6549571Y-41683214D01*
X6604000Y-41628786D01*
X6658429Y-41683214D01*
X6549571Y-41683214D01*
X5569857Y-40649071D02*
X5515429Y-40757928D01*
X5515429Y-40975642D01*
X5569857Y-41084500D01*
X5624286Y-41138928D01*
X5733143Y-41193357D01*
X6059714Y-41193357D01*
X6168571Y-41138928D01*
X6223000Y-41084500D01*
X6277429Y-40975642D01*
X6277429Y-40757928D01*
X6223000Y-40649071D01*
X5515429Y-38744071D02*
X5515429Y-39288357D01*
X6658429Y-39288357D01*
X5515429Y-37873214D02*
X6114143Y-37873214D01*
X6223000Y-37927643D01*
X6277429Y-38036500D01*
X6277429Y-38254214D01*
X6223000Y-38363071D01*
X5569857Y-37873214D02*
X5515429Y-37982071D01*
X5515429Y-38254214D01*
X5569857Y-38363071D01*
X5678714Y-38417500D01*
X5787571Y-38417500D01*
X5896429Y-38363071D01*
X5950857Y-38254214D01*
X5950857Y-37982071D01*
X6005286Y-37873214D01*
X5515429Y-37328928D02*
X6658429Y-37328928D01*
X6223000Y-37328928D02*
X6277429Y-37220071D01*
X6277429Y-37002357D01*
X6223000Y-36893500D01*
X6168571Y-36839071D01*
X6059714Y-36784642D01*
X5733143Y-36784642D01*
X5624286Y-36839071D01*
X5569857Y-36893500D01*
X5515429Y-37002357D01*
X5515429Y-37220071D01*
X5569857Y-37328928D01*
X5515429Y-36131499D02*
X5569857Y-36240357D01*
X5624286Y-36294785D01*
X5733143Y-36349214D01*
X6059714Y-36349214D01*
X6168571Y-36294785D01*
X6223000Y-36240357D01*
X6277429Y-36131499D01*
X6277429Y-35968214D01*
X6223000Y-35859357D01*
X6168571Y-35804928D01*
X6059714Y-35750499D01*
X5733143Y-35750499D01*
X5624286Y-35804928D01*
X5569857Y-35859357D01*
X5515429Y-35968214D01*
X5515429Y-36131499D01*
X5515429Y-35260642D02*
X6277429Y-35260642D01*
X6059714Y-35260642D02*
X6168571Y-35206214D01*
X6223000Y-35151785D01*
X6277429Y-35042928D01*
X6277429Y-34934071D01*
X5515429Y-34063214D02*
X6114143Y-34063214D01*
X6223000Y-34117643D01*
X6277429Y-34226500D01*
X6277429Y-34444214D01*
X6223000Y-34553071D01*
X5569857Y-34063214D02*
X5515429Y-34172071D01*
X5515429Y-34444214D01*
X5569857Y-34553071D01*
X5678714Y-34607500D01*
X5787571Y-34607500D01*
X5896429Y-34553071D01*
X5950857Y-34444214D01*
X5950857Y-34172071D01*
X6005286Y-34063214D01*
X6277429Y-33682214D02*
X6277429Y-33246785D01*
X6658429Y-33518928D02*
X5678714Y-33518928D01*
X5569857Y-33464500D01*
X5515429Y-33355642D01*
X5515429Y-33246785D01*
X5515429Y-32702499D02*
X5569857Y-32811357D01*
X5624286Y-32865785D01*
X5733143Y-32920214D01*
X6059714Y-32920214D01*
X6168571Y-32865785D01*
X6223000Y-32811357D01*
X6277429Y-32702499D01*
X6277429Y-32539214D01*
X6223000Y-32430357D01*
X6168571Y-32375928D01*
X6059714Y-32321499D01*
X5733143Y-32321499D01*
X5624286Y-32375928D01*
X5569857Y-32430357D01*
X5515429Y-32539214D01*
X5515429Y-32702499D01*
X5515429Y-31831642D02*
X6277429Y-31831642D01*
X6059714Y-31831642D02*
X6168571Y-31777214D01*
X6223000Y-31722785D01*
X6277429Y-31613928D01*
X6277429Y-31505071D01*
X6277429Y-31232928D02*
X5515429Y-30960785D01*
X6277429Y-30688643D02*
X5515429Y-30960785D01*
X5243286Y-31069643D01*
X5188857Y-31124071D01*
X5134429Y-31232928D01*
X3601357Y-55290357D02*
X3546929Y-55127071D01*
X3546929Y-54854928D01*
X3601357Y-54746071D01*
X3655786Y-54691642D01*
X3764643Y-54637214D01*
X3873500Y-54637214D01*
X3982357Y-54691642D01*
X4036786Y-54746071D01*
X4091214Y-54854928D01*
X4145643Y-55072642D01*
X4200071Y-55181500D01*
X4254500Y-55235928D01*
X4363357Y-55290357D01*
X4472214Y-55290357D01*
X4581071Y-55235928D01*
X4635500Y-55181500D01*
X4689929Y-55072642D01*
X4689929Y-54800500D01*
X4635500Y-54637214D01*
X3546929Y-53984071D02*
X3601357Y-54092929D01*
X3655786Y-54147357D01*
X3764643Y-54201786D01*
X4091214Y-54201786D01*
X4200071Y-54147357D01*
X4254500Y-54092929D01*
X4308929Y-53984071D01*
X4308929Y-53820786D01*
X4254500Y-53711929D01*
X4200071Y-53657500D01*
X4091214Y-53603071D01*
X3764643Y-53603071D01*
X3655786Y-53657500D01*
X3601357Y-53711929D01*
X3546929Y-53820786D01*
X3546929Y-53984071D01*
X4308929Y-52623357D02*
X3546929Y-52623357D01*
X4308929Y-53113214D02*
X3710214Y-53113214D01*
X3601357Y-53058786D01*
X3546929Y-52949928D01*
X3546929Y-52786643D01*
X3601357Y-52677786D01*
X3655786Y-52623357D01*
X4308929Y-52242357D02*
X4308929Y-51806928D01*
X4689929Y-52079071D02*
X3710214Y-52079071D01*
X3601357Y-52024643D01*
X3546929Y-51915785D01*
X3546929Y-51806928D01*
X3546929Y-51425928D02*
X4689929Y-51425928D01*
X3546929Y-50936071D02*
X4145643Y-50936071D01*
X4254500Y-50990500D01*
X4308929Y-51099357D01*
X4308929Y-51262642D01*
X4254500Y-51371500D01*
X4200071Y-51425928D01*
X3601357Y-49956357D02*
X3546929Y-50065214D01*
X3546929Y-50282928D01*
X3601357Y-50391785D01*
X3710214Y-50446214D01*
X4145643Y-50446214D01*
X4254500Y-50391785D01*
X4308929Y-50282928D01*
X4308929Y-50065214D01*
X4254500Y-49956357D01*
X4145643Y-49901928D01*
X4036786Y-49901928D01*
X3927929Y-50446214D01*
X3546929Y-49412071D02*
X4308929Y-49412071D01*
X4091214Y-49412071D02*
X4200071Y-49357643D01*
X4254500Y-49303214D01*
X4308929Y-49194357D01*
X4308929Y-49085500D01*
X4308929Y-48704500D02*
X3546929Y-48704500D01*
X4200071Y-48704500D02*
X4254500Y-48650072D01*
X4308929Y-48541214D01*
X4308929Y-48377929D01*
X4254500Y-48269072D01*
X4145643Y-48214643D01*
X3546929Y-48214643D01*
X3546929Y-46146357D02*
X4091214Y-46527357D01*
X3546929Y-46799500D02*
X4689929Y-46799500D01*
X4689929Y-46364072D01*
X4635500Y-46255214D01*
X4581071Y-46200786D01*
X4472214Y-46146357D01*
X4308929Y-46146357D01*
X4200071Y-46200786D01*
X4145643Y-46255214D01*
X4091214Y-46364072D01*
X4091214Y-46799500D01*
X3601357Y-45221072D02*
X3546929Y-45329929D01*
X3546929Y-45547643D01*
X3601357Y-45656500D01*
X3710214Y-45710929D01*
X4145643Y-45710929D01*
X4254500Y-45656500D01*
X4308929Y-45547643D01*
X4308929Y-45329929D01*
X4254500Y-45221072D01*
X4145643Y-45166643D01*
X4036786Y-45166643D01*
X3927929Y-45710929D01*
X3601357Y-44731215D02*
X3546929Y-44622358D01*
X3546929Y-44404643D01*
X3601357Y-44295786D01*
X3710214Y-44241358D01*
X3764643Y-44241358D01*
X3873500Y-44295786D01*
X3927929Y-44404643D01*
X3927929Y-44567929D01*
X3982357Y-44676786D01*
X4091214Y-44731215D01*
X4145643Y-44731215D01*
X4254500Y-44676786D01*
X4308929Y-44567929D01*
X4308929Y-44404643D01*
X4254500Y-44295786D01*
X3601357Y-43316072D02*
X3546929Y-43424929D01*
X3546929Y-43642643D01*
X3601357Y-43751500D01*
X3710214Y-43805929D01*
X4145643Y-43805929D01*
X4254500Y-43751500D01*
X4308929Y-43642643D01*
X4308929Y-43424929D01*
X4254500Y-43316072D01*
X4145643Y-43261643D01*
X4036786Y-43261643D01*
X3927929Y-43805929D01*
X3546929Y-42281929D02*
X4145643Y-42281929D01*
X4254500Y-42336358D01*
X4308929Y-42445215D01*
X4308929Y-42662929D01*
X4254500Y-42771786D01*
X3601357Y-42281929D02*
X3546929Y-42390786D01*
X3546929Y-42662929D01*
X3601357Y-42771786D01*
X3710214Y-42826215D01*
X3819071Y-42826215D01*
X3927929Y-42771786D01*
X3982357Y-42662929D01*
X3982357Y-42390786D01*
X4036786Y-42281929D01*
X3546929Y-41737643D02*
X4308929Y-41737643D01*
X4091214Y-41737643D02*
X4200071Y-41683215D01*
X4254500Y-41628786D01*
X4308929Y-41519929D01*
X4308929Y-41411072D01*
X3601357Y-40540215D02*
X3546929Y-40649072D01*
X3546929Y-40866786D01*
X3601357Y-40975644D01*
X3655786Y-41030072D01*
X3764643Y-41084501D01*
X4091214Y-41084501D01*
X4200071Y-41030072D01*
X4254500Y-40975644D01*
X4308929Y-40866786D01*
X4308929Y-40649072D01*
X4254500Y-40540215D01*
X3546929Y-40050358D02*
X4689929Y-40050358D01*
X3546929Y-39560501D02*
X4145643Y-39560501D01*
X4254500Y-39614930D01*
X4308929Y-39723787D01*
X4308929Y-39887072D01*
X4254500Y-39995930D01*
X4200071Y-40050358D01*
X3601357Y-38199787D02*
X3546929Y-38036501D01*
X3546929Y-37764358D01*
X3601357Y-37655501D01*
X3655786Y-37601072D01*
X3764643Y-37546644D01*
X3873500Y-37546644D01*
X3982357Y-37601072D01*
X4036786Y-37655501D01*
X4091214Y-37764358D01*
X4145643Y-37982072D01*
X4200071Y-38090930D01*
X4254500Y-38145358D01*
X4363357Y-38199787D01*
X4472214Y-38199787D01*
X4581071Y-38145358D01*
X4635500Y-38090930D01*
X4689929Y-37982072D01*
X4689929Y-37709930D01*
X4635500Y-37546644D01*
X4308929Y-37220073D02*
X4308929Y-36784644D01*
X4689929Y-37056787D02*
X3710214Y-37056787D01*
X3601357Y-37002359D01*
X3546929Y-36893501D01*
X3546929Y-36784644D01*
X3546929Y-35913787D02*
X4145643Y-35913787D01*
X4254500Y-35968216D01*
X4308929Y-36077073D01*
X4308929Y-36294787D01*
X4254500Y-36403644D01*
X3601357Y-35913787D02*
X3546929Y-36022644D01*
X3546929Y-36294787D01*
X3601357Y-36403644D01*
X3710214Y-36458073D01*
X3819071Y-36458073D01*
X3927929Y-36403644D01*
X3982357Y-36294787D01*
X3982357Y-36022644D01*
X4036786Y-35913787D01*
X4308929Y-35532787D02*
X4308929Y-35097358D01*
X4689929Y-35369501D02*
X3710214Y-35369501D01*
X3601357Y-35315073D01*
X3546929Y-35206215D01*
X3546929Y-35097358D01*
X3546929Y-34716358D02*
X4308929Y-34716358D01*
X4689929Y-34716358D02*
X4635500Y-34770787D01*
X4581071Y-34716358D01*
X4635500Y-34661930D01*
X4689929Y-34716358D01*
X4581071Y-34716358D01*
X3546929Y-34008786D02*
X3601357Y-34117644D01*
X3655786Y-34172072D01*
X3764643Y-34226501D01*
X4091214Y-34226501D01*
X4200071Y-34172072D01*
X4254500Y-34117644D01*
X4308929Y-34008786D01*
X4308929Y-33845501D01*
X4254500Y-33736644D01*
X4200071Y-33682215D01*
X4091214Y-33627786D01*
X3764643Y-33627786D01*
X3655786Y-33682215D01*
X3601357Y-33736644D01*
X3546929Y-33845501D01*
X3546929Y-34008786D01*
X4308929Y-33137929D02*
X3546929Y-33137929D01*
X4200071Y-33137929D02*
X4254500Y-33083501D01*
X4308929Y-32974643D01*
X4308929Y-32811358D01*
X4254500Y-32702501D01*
X4145643Y-32648072D01*
X3546929Y-32648072D01*
X2721429Y-52460070D02*
X1796143Y-52460070D01*
X1687286Y-52405642D01*
X1632857Y-52351213D01*
X1578429Y-52242356D01*
X1578429Y-52024642D01*
X1632857Y-51915784D01*
X1687286Y-51861356D01*
X1796143Y-51806927D01*
X2721429Y-51806927D01*
X1632857Y-51317070D02*
X1578429Y-51153784D01*
X1578429Y-50881641D01*
X1632857Y-50772784D01*
X1687286Y-50718355D01*
X1796143Y-50663927D01*
X1905000Y-50663927D01*
X2013857Y-50718355D01*
X2068286Y-50772784D01*
X2122714Y-50881641D01*
X2177143Y-51099355D01*
X2231571Y-51208213D01*
X2286000Y-51262641D01*
X2394857Y-51317070D01*
X2503714Y-51317070D01*
X2612571Y-51262641D01*
X2667000Y-51208213D01*
X2721429Y-51099355D01*
X2721429Y-50827213D01*
X2667000Y-50663927D01*
X1578429Y-50174070D02*
X2721429Y-50174070D01*
X2721429Y-49901927D01*
X2667000Y-49738642D01*
X2558143Y-49629784D01*
X2449286Y-49575356D01*
X2231571Y-49520927D01*
X2068286Y-49520927D01*
X1850571Y-49575356D01*
X1741714Y-49629784D01*
X1632857Y-49738642D01*
X1578429Y-49901927D01*
X1578429Y-50174070D01*
X1905000Y-49085499D02*
X1905000Y-48541213D01*
X1578429Y-49194356D02*
X2721429Y-48813356D01*
X1578429Y-48432356D01*
X2177143Y-46799499D02*
X2177143Y-47180499D01*
X1578429Y-47180499D02*
X2721429Y-47180499D01*
X2721429Y-46636213D01*
X1578429Y-46037499D02*
X1632857Y-46146357D01*
X1687286Y-46200785D01*
X1796143Y-46255214D01*
X2122714Y-46255214D01*
X2231571Y-46200785D01*
X2286000Y-46146357D01*
X2340429Y-46037499D01*
X2340429Y-45874214D01*
X2286000Y-45765357D01*
X2231571Y-45710928D01*
X2122714Y-45656499D01*
X1796143Y-45656499D01*
X1687286Y-45710928D01*
X1632857Y-45765357D01*
X1578429Y-45874214D01*
X1578429Y-46037499D01*
X1578429Y-45166642D02*
X2340429Y-45166642D01*
X2122714Y-45166642D02*
X2231571Y-45112214D01*
X2286000Y-45057785D01*
X2340429Y-44948928D01*
X2340429Y-44840071D01*
X1632857Y-44023643D02*
X1578429Y-44132500D01*
X1578429Y-44350214D01*
X1632857Y-44459071D01*
X1741714Y-44513500D01*
X2177143Y-44513500D01*
X2286000Y-44459071D01*
X2340429Y-44350214D01*
X2340429Y-44132500D01*
X2286000Y-44023643D01*
X2177143Y-43969214D01*
X2068286Y-43969214D01*
X1959429Y-44513500D01*
X1632857Y-43533786D02*
X1578429Y-43424929D01*
X1578429Y-43207214D01*
X1632857Y-43098357D01*
X1741714Y-43043929D01*
X1796143Y-43043929D01*
X1905000Y-43098357D01*
X1959429Y-43207214D01*
X1959429Y-43370500D01*
X2013857Y-43479357D01*
X2122714Y-43533786D01*
X2177143Y-43533786D01*
X2286000Y-43479357D01*
X2340429Y-43370500D01*
X2340429Y-43207214D01*
X2286000Y-43098357D01*
X2340429Y-42717357D02*
X2340429Y-42281928D01*
X2721429Y-42554071D02*
X1741714Y-42554071D01*
X1632857Y-42499643D01*
X1578429Y-42390785D01*
X1578429Y-42281928D01*
X1632857Y-41084500D02*
X1578429Y-40921214D01*
X1578429Y-40649071D01*
X1632857Y-40540214D01*
X1687286Y-40485785D01*
X1796143Y-40431357D01*
X1905000Y-40431357D01*
X2013857Y-40485785D01*
X2068286Y-40540214D01*
X2122714Y-40649071D01*
X2177143Y-40866785D01*
X2231571Y-40975643D01*
X2286000Y-41030071D01*
X2394857Y-41084500D01*
X2503714Y-41084500D01*
X2612571Y-41030071D01*
X2667000Y-40975643D01*
X2721429Y-40866785D01*
X2721429Y-40594643D01*
X2667000Y-40431357D01*
X1632857Y-39506072D02*
X1578429Y-39614929D01*
X1578429Y-39832643D01*
X1632857Y-39941500D01*
X1741714Y-39995929D01*
X2177143Y-39995929D01*
X2286000Y-39941500D01*
X2340429Y-39832643D01*
X2340429Y-39614929D01*
X2286000Y-39506072D01*
X2177143Y-39451643D01*
X2068286Y-39451643D01*
X1959429Y-39995929D01*
X1578429Y-38961786D02*
X2340429Y-38961786D01*
X2122714Y-38961786D02*
X2231571Y-38907358D01*
X2286000Y-38852929D01*
X2340429Y-38744072D01*
X2340429Y-38635215D01*
X2340429Y-38363072D02*
X1578429Y-38090929D01*
X2340429Y-37818787D01*
X1578429Y-37383358D02*
X2340429Y-37383358D01*
X2721429Y-37383358D02*
X2667000Y-37437787D01*
X2612571Y-37383358D01*
X2667000Y-37328930D01*
X2721429Y-37383358D01*
X2612571Y-37383358D01*
X1632857Y-36349215D02*
X1578429Y-36458072D01*
X1578429Y-36675786D01*
X1632857Y-36784644D01*
X1687286Y-36839072D01*
X1796143Y-36893501D01*
X2122714Y-36893501D01*
X2231571Y-36839072D01*
X2286000Y-36784644D01*
X2340429Y-36675786D01*
X2340429Y-36458072D01*
X2286000Y-36349215D01*
X1632857Y-35423930D02*
X1578429Y-35532787D01*
X1578429Y-35750501D01*
X1632857Y-35859358D01*
X1741714Y-35913787D01*
X2177143Y-35913787D01*
X2286000Y-35859358D01*
X2340429Y-35750501D01*
X2340429Y-35532787D01*
X2286000Y-35423930D01*
X2177143Y-35369501D01*
X2068286Y-35369501D01*
X1959429Y-35913787D01*
D13*
X7385976Y-14381238D02*
X6115976Y-13957904D01*
X7385976Y-13534571D01*
X6115976Y-12446000D02*
X6115976Y-13171714D01*
X6115976Y-12808857D02*
X7385976Y-12808857D01*
X7204548Y-12929809D01*
X7083595Y-13050762D01*
X7023119Y-13171714D01*
X6236929Y-11901714D02*
X6176452Y-11841238D01*
X6115976Y-11901714D01*
X6176452Y-11962190D01*
X6236929Y-11901714D01*
X6115976Y-11901714D01*
X6115976Y-10631714D02*
X6115976Y-11357428D01*
X6115976Y-10994571D02*
X7385976Y-10994571D01*
X7204548Y-11115523D01*
X7083595Y-11236476D01*
X7023119Y-11357428D01*
X5060024Y-14623143D02*
X5120500Y-14562667D01*
X5180976Y-14441715D01*
X5180976Y-14139334D01*
X5120500Y-14018381D01*
X5060024Y-13957905D01*
X4939071Y-13897429D01*
X4818119Y-13897429D01*
X4636690Y-13957905D01*
X3910976Y-14683619D01*
X3910976Y-13897429D01*
X5180976Y-13111238D02*
X5180976Y-12990286D01*
X5120500Y-12869334D01*
X5060024Y-12808857D01*
X4939071Y-12748381D01*
X4697167Y-12687905D01*
X4394786Y-12687905D01*
X4152881Y-12748381D01*
X4031929Y-12808857D01*
X3971452Y-12869334D01*
X3910976Y-12990286D01*
X3910976Y-13111238D01*
X3971452Y-13232191D01*
X4031929Y-13292667D01*
X4152881Y-13353143D01*
X4394786Y-13413619D01*
X4697167Y-13413619D01*
X4939071Y-13353143D01*
X5060024Y-13292667D01*
X5120500Y-13232191D01*
X5180976Y-13111238D01*
X3910976Y-11478381D02*
X3910976Y-12204095D01*
X3910976Y-11841238D02*
X5180976Y-11841238D01*
X4999548Y-11962190D01*
X4878595Y-12083143D01*
X4818119Y-12204095D01*
X5180976Y-11055047D02*
X5180976Y-10208381D01*
X3910976Y-10752666D01*
M02*
