G04 #@! TF.FileFunction,Legend,Top*
%FSLAX46Y46*%
G04 Gerber Fmt 4.6, Leading zero omitted, Abs format (unit mm)*
G04 Created by KiCad (PCBNEW 4.0.6-e0-6349~53~ubuntu16.04.1) date Wed May 31 11:55:21 2017*
%MOMM*%
%LPD*%
G01*
G04 APERTURE LIST*
%ADD10C,0.100000*%
%ADD11C,0.300000*%
%ADD12C,6.985000*%
%ADD13C,0.149860*%
%ADD14C,0.127000*%
%ADD15C,0.381000*%
%ADD16C,0.120000*%
%ADD17C,0.150000*%
%ADD18C,0.076200*%
G04 APERTURE END LIST*
D10*
D11*
X1179286Y-43663810D02*
X1082524Y-43567048D01*
X985762Y-43276763D01*
X985762Y-43083239D01*
X1082524Y-42792953D01*
X1276048Y-42599429D01*
X1469571Y-42502668D01*
X1856619Y-42405906D01*
X2146905Y-42405906D01*
X2533952Y-42502668D01*
X2727476Y-42599429D01*
X2921000Y-42792953D01*
X3017762Y-43083239D01*
X3017762Y-43276763D01*
X2921000Y-43567048D01*
X2824238Y-43663810D01*
X985762Y-44824953D02*
X1082524Y-44631429D01*
X1179286Y-44534668D01*
X1372810Y-44437906D01*
X1953381Y-44437906D01*
X2146905Y-44534668D01*
X2243667Y-44631429D01*
X2340429Y-44824953D01*
X2340429Y-45115239D01*
X2243667Y-45308763D01*
X2146905Y-45405525D01*
X1953381Y-45502287D01*
X1372810Y-45502287D01*
X1179286Y-45405525D01*
X1082524Y-45308763D01*
X985762Y-45115239D01*
X985762Y-44824953D01*
X2340429Y-46179620D02*
X985762Y-46566667D01*
X1953381Y-46953715D01*
X985762Y-47340763D01*
X2340429Y-47727810D01*
X1082524Y-49276001D02*
X985762Y-49082477D01*
X985762Y-48695429D01*
X1082524Y-48501906D01*
X1276048Y-48405144D01*
X2050143Y-48405144D01*
X2243667Y-48501906D01*
X2340429Y-48695429D01*
X2340429Y-49082477D01*
X2243667Y-49276001D01*
X2050143Y-49372763D01*
X1856619Y-49372763D01*
X1663095Y-48405144D01*
X1082524Y-51017715D02*
X985762Y-50824191D01*
X985762Y-50437143D01*
X1082524Y-50243620D01*
X1276048Y-50146858D01*
X2050143Y-50146858D01*
X2243667Y-50243620D01*
X2340429Y-50437143D01*
X2340429Y-50824191D01*
X2243667Y-51017715D01*
X2050143Y-51114477D01*
X1856619Y-51114477D01*
X1663095Y-50146858D01*
X2340429Y-51695048D02*
X2340429Y-52469143D01*
X3017762Y-51985334D02*
X1276048Y-51985334D01*
X1082524Y-52082095D01*
X985762Y-52275619D01*
X985762Y-52469143D01*
X985762Y-54017334D02*
X2050143Y-54017334D01*
X2243667Y-53920572D01*
X2340429Y-53727048D01*
X2340429Y-53340000D01*
X2243667Y-53146477D01*
X1082524Y-54017334D02*
X985762Y-53823810D01*
X985762Y-53340000D01*
X1082524Y-53146477D01*
X1276048Y-53049715D01*
X1469571Y-53049715D01*
X1663095Y-53146477D01*
X1759857Y-53340000D01*
X1759857Y-53823810D01*
X1856619Y-54017334D01*
X24849667Y-37336167D02*
X25103667Y-37420833D01*
X25527000Y-37420833D01*
X25696333Y-37336167D01*
X25781000Y-37251500D01*
X25865667Y-37082167D01*
X25865667Y-36912833D01*
X25781000Y-36743500D01*
X25696333Y-36658833D01*
X25527000Y-36574167D01*
X25188333Y-36489500D01*
X25019000Y-36404833D01*
X24934333Y-36320167D01*
X24849667Y-36150833D01*
X24849667Y-35981500D01*
X24934333Y-35812167D01*
X25019000Y-35727500D01*
X25188333Y-35642833D01*
X25611667Y-35642833D01*
X25865667Y-35727500D01*
X27389666Y-37420833D02*
X27389666Y-36489500D01*
X27305000Y-36320167D01*
X27135666Y-36235500D01*
X26797000Y-36235500D01*
X26627666Y-36320167D01*
X27389666Y-37336167D02*
X27220333Y-37420833D01*
X26797000Y-37420833D01*
X26627666Y-37336167D01*
X26543000Y-37166833D01*
X26543000Y-36997500D01*
X26627666Y-36828167D01*
X26797000Y-36743500D01*
X27220333Y-36743500D01*
X27389666Y-36658833D01*
X28236333Y-36235500D02*
X28236333Y-38013500D01*
X28236333Y-36320167D02*
X28405667Y-36235500D01*
X28744333Y-36235500D01*
X28913667Y-36320167D01*
X28998333Y-36404833D01*
X29083000Y-36574167D01*
X29083000Y-37082167D01*
X28998333Y-37251500D01*
X28913667Y-37336167D01*
X28744333Y-37420833D01*
X28405667Y-37420833D01*
X28236333Y-37336167D01*
X29591000Y-36235500D02*
X30268334Y-36235500D01*
X29845000Y-37420833D02*
X29845000Y-35896833D01*
X29929667Y-35727500D01*
X30099000Y-35642833D01*
X30268334Y-35642833D01*
X31115000Y-37420833D02*
X30945667Y-37336167D01*
X30861000Y-37166833D01*
X30861000Y-35642833D01*
X32554333Y-36235500D02*
X32554333Y-37420833D01*
X31792333Y-36235500D02*
X31792333Y-37166833D01*
X31877000Y-37336167D01*
X32046333Y-37420833D01*
X32300333Y-37420833D01*
X32469667Y-37336167D01*
X32554333Y-37251500D01*
X33231667Y-37420833D02*
X34163000Y-36235500D01*
X33231667Y-36235500D02*
X34163000Y-37420833D01*
X25569333Y-40387833D02*
X25569333Y-38609833D01*
X25569333Y-39456500D02*
X26585333Y-39456500D01*
X26585333Y-40387833D02*
X26585333Y-38609833D01*
X28109334Y-40303167D02*
X27940000Y-40387833D01*
X27601334Y-40387833D01*
X27432000Y-40303167D01*
X27347334Y-40133833D01*
X27347334Y-39456500D01*
X27432000Y-39287167D01*
X27601334Y-39202500D01*
X27940000Y-39202500D01*
X28109334Y-39287167D01*
X28194000Y-39456500D01*
X28194000Y-39625833D01*
X27347334Y-39795167D01*
X29718000Y-40387833D02*
X29718000Y-39456500D01*
X29633334Y-39287167D01*
X29464000Y-39202500D01*
X29125334Y-39202500D01*
X28956000Y-39287167D01*
X29718000Y-40303167D02*
X29548667Y-40387833D01*
X29125334Y-40387833D01*
X28956000Y-40303167D01*
X28871334Y-40133833D01*
X28871334Y-39964500D01*
X28956000Y-39795167D01*
X29125334Y-39710500D01*
X29548667Y-39710500D01*
X29718000Y-39625833D01*
X30310667Y-39202500D02*
X30988001Y-39202500D01*
X30564667Y-38609833D02*
X30564667Y-40133833D01*
X30649334Y-40303167D01*
X30818667Y-40387833D01*
X30988001Y-40387833D01*
X32258001Y-40303167D02*
X32088667Y-40387833D01*
X31750001Y-40387833D01*
X31580667Y-40303167D01*
X31496001Y-40133833D01*
X31496001Y-39456500D01*
X31580667Y-39287167D01*
X31750001Y-39202500D01*
X32088667Y-39202500D01*
X32258001Y-39287167D01*
X32342667Y-39456500D01*
X32342667Y-39625833D01*
X31496001Y-39795167D01*
X33104667Y-40387833D02*
X33104667Y-39202500D01*
X33104667Y-39541167D02*
X33189334Y-39371833D01*
X33274001Y-39287167D01*
X33443334Y-39202500D01*
X33612667Y-39202500D01*
X11457857Y-47045714D02*
X11386429Y-47260000D01*
X11386429Y-47617143D01*
X11457857Y-47760000D01*
X11529286Y-47831429D01*
X11672143Y-47902857D01*
X11815000Y-47902857D01*
X11957857Y-47831429D01*
X12029286Y-47760000D01*
X12100714Y-47617143D01*
X12172143Y-47331429D01*
X12243571Y-47188571D01*
X12315000Y-47117143D01*
X12457857Y-47045714D01*
X12600714Y-47045714D01*
X12743571Y-47117143D01*
X12815000Y-47188571D01*
X12886429Y-47331429D01*
X12886429Y-47688571D01*
X12815000Y-47902857D01*
X11386429Y-48545714D02*
X12886429Y-48545714D01*
X11386429Y-49402857D01*
X12886429Y-49402857D01*
D12*
X6985000Y-53340000D02*
X6985000Y-43180000D01*
D13*
X25966057Y-32441243D02*
X26107571Y-32488414D01*
X26154743Y-32535586D01*
X26201914Y-32629929D01*
X26201914Y-32771443D01*
X26154743Y-32865786D01*
X26107571Y-32912957D01*
X26013229Y-32960129D01*
X25635857Y-32960129D01*
X25635857Y-31969529D01*
X25966057Y-31969529D01*
X26060400Y-32016700D01*
X26107571Y-32063871D01*
X26154743Y-32158214D01*
X26154743Y-32252557D01*
X26107571Y-32346900D01*
X26060400Y-32394071D01*
X25966057Y-32441243D01*
X25635857Y-32441243D01*
X26579286Y-32677100D02*
X27051000Y-32677100D01*
X26484943Y-32960129D02*
X26815143Y-31969529D01*
X27145343Y-32960129D01*
X27334029Y-31969529D02*
X27900086Y-31969529D01*
X27617057Y-32960129D02*
X27617057Y-31969529D01*
X28088772Y-31969529D02*
X28654829Y-31969529D01*
X28371800Y-32960129D02*
X28371800Y-31969529D01*
X8490857Y-63059129D02*
X8490857Y-62068529D01*
X8490857Y-62540243D02*
X9056914Y-62540243D01*
X9056914Y-63059129D02*
X9056914Y-62068529D01*
X9528628Y-62540243D02*
X9858828Y-62540243D01*
X10000342Y-63059129D02*
X9528628Y-63059129D01*
X9528628Y-62068529D01*
X10000342Y-62068529D01*
X10377714Y-62776100D02*
X10849428Y-62776100D01*
X10283371Y-63059129D02*
X10613571Y-62068529D01*
X10943771Y-63059129D01*
X11132457Y-62068529D02*
X11698514Y-62068529D01*
X11415485Y-63059129D02*
X11415485Y-62068529D01*
X12028714Y-62540243D02*
X12358914Y-62540243D01*
X12500428Y-63059129D02*
X12028714Y-63059129D01*
X12028714Y-62068529D01*
X12500428Y-62068529D01*
X13491028Y-63059129D02*
X13160828Y-62587414D01*
X12924971Y-63059129D02*
X12924971Y-62068529D01*
X13302343Y-62068529D01*
X13396685Y-62115700D01*
X13443857Y-62162871D01*
X13491028Y-62257214D01*
X13491028Y-62398729D01*
X13443857Y-62493071D01*
X13396685Y-62540243D01*
X13302343Y-62587414D01*
X12924971Y-62587414D01*
X34983057Y-55936243D02*
X35124571Y-55983414D01*
X35171743Y-56030586D01*
X35218914Y-56124929D01*
X35218914Y-56266443D01*
X35171743Y-56360786D01*
X35124571Y-56407957D01*
X35030229Y-56455129D01*
X34652857Y-56455129D01*
X34652857Y-55464529D01*
X34983057Y-55464529D01*
X35077400Y-55511700D01*
X35124571Y-55558871D01*
X35171743Y-55653214D01*
X35171743Y-55747557D01*
X35124571Y-55841900D01*
X35077400Y-55889071D01*
X34983057Y-55936243D01*
X34652857Y-55936243D01*
X35596286Y-56172100D02*
X36068000Y-56172100D01*
X35501943Y-56455129D02*
X35832143Y-55464529D01*
X36162343Y-56455129D01*
X36351029Y-55464529D02*
X36917086Y-55464529D01*
X36634057Y-56455129D02*
X36634057Y-55464529D01*
X37105772Y-55464529D02*
X37671829Y-55464529D01*
X37388800Y-56455129D02*
X37388800Y-55464529D01*
X35679743Y-42684700D02*
X35585400Y-42637529D01*
X35443886Y-42637529D01*
X35302371Y-42684700D01*
X35208029Y-42779043D01*
X35160857Y-42873386D01*
X35113686Y-43062071D01*
X35113686Y-43203586D01*
X35160857Y-43392271D01*
X35208029Y-43486614D01*
X35302371Y-43580957D01*
X35443886Y-43628129D01*
X35538229Y-43628129D01*
X35679743Y-43580957D01*
X35726914Y-43533786D01*
X35726914Y-43203586D01*
X35538229Y-43203586D01*
X36151457Y-43628129D02*
X36151457Y-42637529D01*
X36717514Y-43628129D01*
X36717514Y-42637529D01*
X37189228Y-43628129D02*
X37189228Y-42637529D01*
X37425085Y-42637529D01*
X37566600Y-42684700D01*
X37660942Y-42779043D01*
X37708114Y-42873386D01*
X37755285Y-43062071D01*
X37755285Y-43203586D01*
X37708114Y-43392271D01*
X37660942Y-43486614D01*
X37566600Y-43580957D01*
X37425085Y-43628129D01*
X37189228Y-43628129D01*
X9506857Y-1834243D02*
X9837057Y-1834243D01*
X9978571Y-2353129D02*
X9506857Y-2353129D01*
X9506857Y-1362529D01*
X9978571Y-1362529D01*
X10403114Y-2353129D02*
X10403114Y-1362529D01*
X10969171Y-2353129D01*
X10969171Y-1362529D01*
X16696871Y-8421914D02*
X17168586Y-8091714D01*
X16696871Y-7855857D02*
X17687471Y-7855857D01*
X17687471Y-8233229D01*
X17640300Y-8327571D01*
X17593129Y-8374743D01*
X17498786Y-8421914D01*
X17357271Y-8421914D01*
X17262929Y-8374743D01*
X17215757Y-8327571D01*
X17168586Y-8233229D01*
X17168586Y-7855857D01*
X17215757Y-8846457D02*
X17215757Y-9176657D01*
X16696871Y-9318171D02*
X16696871Y-8846457D01*
X17687471Y-8846457D01*
X17687471Y-9318171D01*
X17215757Y-10072914D02*
X17215757Y-9742714D01*
X16696871Y-9742714D02*
X17687471Y-9742714D01*
X17687471Y-10214428D01*
X22720300Y-8374743D02*
X22767471Y-8280400D01*
X22767471Y-8138886D01*
X22720300Y-7997371D01*
X22625957Y-7903029D01*
X22531614Y-7855857D01*
X22342929Y-7808686D01*
X22201414Y-7808686D01*
X22012729Y-7855857D01*
X21918386Y-7903029D01*
X21824043Y-7997371D01*
X21776871Y-8138886D01*
X21776871Y-8233229D01*
X21824043Y-8374743D01*
X21871214Y-8421914D01*
X22201414Y-8421914D01*
X22201414Y-8233229D01*
X21776871Y-8846457D02*
X22767471Y-8846457D01*
X21776871Y-9412514D01*
X22767471Y-9412514D01*
X21776871Y-9884228D02*
X22767471Y-9884228D01*
X22767471Y-10120085D01*
X22720300Y-10261600D01*
X22625957Y-10355942D01*
X22531614Y-10403114D01*
X22342929Y-10450285D01*
X22201414Y-10450285D01*
X22012729Y-10403114D01*
X21918386Y-10355942D01*
X21824043Y-10261600D01*
X21776871Y-10120085D01*
X21776871Y-9884228D01*
X18601871Y-7855857D02*
X19592471Y-7855857D01*
X19592471Y-8091714D01*
X19545300Y-8233229D01*
X19450957Y-8327571D01*
X19356614Y-8374743D01*
X19167929Y-8421914D01*
X19026414Y-8421914D01*
X18837729Y-8374743D01*
X18743386Y-8327571D01*
X18649043Y-8233229D01*
X18601871Y-8091714D01*
X18601871Y-7855857D01*
X18601871Y-8846457D02*
X19592471Y-8846457D01*
X19120757Y-9648371D02*
X19120757Y-9318171D01*
X18601871Y-9318171D02*
X19592471Y-9318171D01*
X19592471Y-9789885D01*
X19120757Y-10497457D02*
X19120757Y-10167257D01*
X18601871Y-10167257D02*
X19592471Y-10167257D01*
X19592471Y-10638971D01*
X20390757Y-7855857D02*
X20390757Y-8186057D01*
X19871871Y-8327571D02*
X19871871Y-7855857D01*
X20862471Y-7855857D01*
X20862471Y-8327571D01*
X19871871Y-8752114D02*
X20862471Y-8752114D01*
X19871871Y-9318171D01*
X20862471Y-9318171D01*
D14*
X36195000Y-44958000D02*
X36068000Y-44450000D01*
X36068000Y-44450000D02*
X37211000Y-44450000D01*
X37211000Y-44450000D02*
X37084000Y-44958000D01*
X37592000Y-52578000D02*
G75*
G03X37592000Y-52578000I-508000J0D01*
G01*
X37592000Y-47498000D02*
G75*
G03X37592000Y-47498000I-508000J0D01*
G01*
X36195000Y-44958000D02*
X37973000Y-44958000D01*
X37973000Y-44958000D02*
X37973000Y-55118000D01*
X37973000Y-55118000D02*
X36195000Y-55118000D01*
X31877000Y-44958000D02*
X30480000Y-44958000D01*
X30480000Y-44958000D02*
X30480000Y-55118000D01*
X30480000Y-55118000D02*
X31877000Y-55118000D01*
X35814000Y-52578000D02*
G75*
G03X35814000Y-52578000I-1778000J0D01*
G01*
D15*
X32893000Y-51435000D02*
X35179000Y-53721000D01*
X35052000Y-53848000D02*
X32766000Y-51562000D01*
X33020000Y-51308000D02*
X35306000Y-53594000D01*
X33020000Y-46228000D02*
X35306000Y-48514000D01*
X35052000Y-48768000D02*
X32766000Y-46482000D01*
X32893000Y-46355000D02*
X35179000Y-48641000D01*
D14*
X35814000Y-47498000D02*
G75*
G03X35814000Y-47498000I-1778000J0D01*
G01*
X36195000Y-44958000D02*
X36195000Y-55118000D01*
X36195000Y-55118000D02*
X31877000Y-55118000D01*
X31877000Y-55118000D02*
X31877000Y-44958000D01*
X31877000Y-44958000D02*
X36195000Y-44958000D01*
X35941000Y-50292000D02*
X32131000Y-50292000D01*
X35941000Y-50165000D02*
X32131000Y-50165000D01*
X35941000Y-50038000D02*
X32131000Y-50038000D01*
X35941000Y-49911000D02*
X32131000Y-49911000D01*
X35941000Y-49784000D02*
X32131000Y-49784000D01*
X35941000Y-49657000D02*
X35941000Y-50419000D01*
X35941000Y-50419000D02*
X32131000Y-50419000D01*
X32131000Y-50419000D02*
X32131000Y-49657000D01*
X32131000Y-49657000D02*
X35941000Y-49657000D01*
D16*
X21005000Y-54720000D02*
X21005000Y-55200000D01*
X21005000Y-55200000D02*
X13285000Y-55200000D01*
X13285000Y-55200000D02*
X13285000Y-54720000D01*
X21005000Y-51960000D02*
X21005000Y-51480000D01*
X21005000Y-51480000D02*
X13285000Y-51480000D01*
X13285000Y-51480000D02*
X13285000Y-51960000D01*
X19805000Y-55200000D02*
X19805000Y-51480000D01*
X14555000Y-42435000D02*
X14555000Y-41955000D01*
X14555000Y-41955000D02*
X22275000Y-41955000D01*
X22275000Y-41955000D02*
X22275000Y-42435000D01*
X14555000Y-45195000D02*
X14555000Y-45675000D01*
X14555000Y-45675000D02*
X22275000Y-45675000D01*
X22275000Y-45675000D02*
X22275000Y-45195000D01*
X15755000Y-41955000D02*
X15755000Y-45675000D01*
D14*
X24130000Y-61595000D02*
X24638000Y-61468000D01*
X24638000Y-61468000D02*
X24638000Y-62611000D01*
X24638000Y-62611000D02*
X24130000Y-62484000D01*
X17018000Y-62484000D02*
G75*
G03X17018000Y-62484000I-508000J0D01*
G01*
X22098000Y-62484000D02*
G75*
G03X22098000Y-62484000I-508000J0D01*
G01*
X24130000Y-61595000D02*
X24130000Y-63373000D01*
X24130000Y-63373000D02*
X13970000Y-63373000D01*
X13970000Y-63373000D02*
X13970000Y-61595000D01*
X24130000Y-57277000D02*
X24130000Y-55880000D01*
X24130000Y-55880000D02*
X13970000Y-55880000D01*
X13970000Y-55880000D02*
X13970000Y-57277000D01*
X18288000Y-59436000D02*
G75*
G03X18288000Y-59436000I-1778000J0D01*
G01*
D15*
X17653000Y-58293000D02*
X15367000Y-60579000D01*
X15240000Y-60452000D02*
X17526000Y-58166000D01*
X17780000Y-58420000D02*
X15494000Y-60706000D01*
X22860000Y-58420000D02*
X20574000Y-60706000D01*
X20320000Y-60452000D02*
X22606000Y-58166000D01*
X22733000Y-58293000D02*
X20447000Y-60579000D01*
D14*
X23368000Y-59436000D02*
G75*
G03X23368000Y-59436000I-1778000J0D01*
G01*
X24130000Y-61595000D02*
X13970000Y-61595000D01*
X13970000Y-61595000D02*
X13970000Y-57277000D01*
X13970000Y-57277000D02*
X24130000Y-57277000D01*
X24130000Y-57277000D02*
X24130000Y-61595000D01*
X18796000Y-61341000D02*
X18796000Y-57531000D01*
X18923000Y-61341000D02*
X18923000Y-57531000D01*
X19050000Y-61341000D02*
X19050000Y-57531000D01*
X19177000Y-61341000D02*
X19177000Y-57531000D01*
X19304000Y-61341000D02*
X19304000Y-57531000D01*
X19431000Y-61341000D02*
X18669000Y-61341000D01*
X18669000Y-61341000D02*
X18669000Y-57531000D01*
X18669000Y-57531000D02*
X19431000Y-57531000D01*
X19431000Y-57531000D02*
X19431000Y-61341000D01*
D16*
X19140000Y-25360000D02*
X23960000Y-25360000D01*
X19140000Y-27980000D02*
X23960000Y-27980000D01*
X19140000Y-25360000D02*
X19140000Y-25674000D01*
X19140000Y-27666000D02*
X19140000Y-27980000D01*
X23960000Y-25360000D02*
X23960000Y-25674000D01*
X23960000Y-27666000D02*
X23960000Y-27980000D01*
X2630000Y-7580000D02*
X7450000Y-7580000D01*
X2630000Y-10200000D02*
X7450000Y-10200000D01*
X2630000Y-7580000D02*
X2630000Y-7894000D01*
X2630000Y-9886000D02*
X2630000Y-10200000D01*
X7450000Y-7580000D02*
X7450000Y-7894000D01*
X7450000Y-9886000D02*
X7450000Y-10200000D01*
X2630000Y-32980000D02*
X7450000Y-32980000D01*
X2630000Y-35600000D02*
X7450000Y-35600000D01*
X2630000Y-32980000D02*
X2630000Y-33294000D01*
X2630000Y-35286000D02*
X2630000Y-35600000D01*
X7450000Y-32980000D02*
X7450000Y-33294000D01*
X7450000Y-35286000D02*
X7450000Y-35600000D01*
X20722335Y-37021392D02*
G75*
G03X17490000Y-36864484I-1672335J-1078608D01*
G01*
X20722335Y-39178608D02*
G75*
G02X17490000Y-39335516I-1672335J1078608D01*
G01*
X20091130Y-37020163D02*
G75*
G03X18009039Y-37020000I-1041130J-1079837D01*
G01*
X20091130Y-39179837D02*
G75*
G02X18009039Y-39180000I-1041130J1079837D01*
G01*
X17490000Y-36864000D02*
X17490000Y-37020000D01*
X17490000Y-39180000D02*
X17490000Y-39336000D01*
D17*
X13749020Y-6908800D02*
X24350980Y-6908800D01*
X24350980Y-6510020D02*
X13749020Y-6510020D01*
X24350980Y-1209040D02*
X13749020Y-1209040D01*
X13749020Y-711200D02*
X24350980Y-711200D01*
X16553180Y-1209040D02*
X16553180Y-711200D01*
X19050000Y-1209040D02*
X19050000Y-711200D01*
X24147780Y-711200D02*
X24147780Y-1209040D01*
X13949680Y-1209040D02*
X13949680Y-711200D01*
X21546820Y-711200D02*
X21546820Y-1209040D01*
X13751560Y-711200D02*
X13751560Y-6908800D01*
X24345900Y-6908800D02*
X24345900Y-711200D01*
D16*
X10840000Y-11840000D02*
X14560000Y-11840000D01*
X10840000Y-13560000D02*
X14560000Y-13560000D01*
X14560000Y-9750000D02*
X10840000Y-9750000D01*
X14560000Y-8030000D02*
X10840000Y-8030000D01*
X14560000Y-23720000D02*
X10840000Y-23720000D01*
X14560000Y-22000000D02*
X10840000Y-22000000D01*
X6940000Y-27530000D02*
X3220000Y-27530000D01*
X6940000Y-25810000D02*
X3220000Y-25810000D01*
X3220000Y-29620000D02*
X6940000Y-29620000D01*
X3220000Y-31340000D02*
X6940000Y-31340000D01*
X27260000Y-35150000D02*
X23540000Y-35150000D01*
X27260000Y-33430000D02*
X23540000Y-33430000D01*
X34880000Y-19910000D02*
X31160000Y-19910000D01*
X34880000Y-18190000D02*
X31160000Y-18190000D01*
X31160000Y-14380000D02*
X34880000Y-14380000D01*
X31160000Y-16100000D02*
X34880000Y-16100000D01*
X34880000Y-27530000D02*
X31160000Y-27530000D01*
X34880000Y-25810000D02*
X31160000Y-25810000D01*
X10840000Y-25810000D02*
X14560000Y-25810000D01*
X10840000Y-27530000D02*
X14560000Y-27530000D01*
X14560000Y-31340000D02*
X10840000Y-31340000D01*
X14560000Y-29620000D02*
X10840000Y-29620000D01*
X14560000Y-38960000D02*
X10840000Y-38960000D01*
X14560000Y-37240000D02*
X10840000Y-37240000D01*
X10840000Y-33430000D02*
X14560000Y-33430000D01*
X10840000Y-35150000D02*
X14560000Y-35150000D01*
X5075704Y-15595309D02*
G75*
G02X7385000Y-15555000I1154296J40309D01*
G01*
X7384052Y-15534879D02*
G75*
G02X5990000Y-16684000I-1154052J-20121D01*
G01*
X2610000Y-23875000D02*
X2610000Y-14225000D01*
X7561000Y-23875000D02*
X7561000Y-14225000D01*
X2610000Y-23875000D02*
X7561000Y-23875000D01*
X2610000Y-14225000D02*
X7561000Y-14225000D01*
X5496000Y-14679000D02*
X7106000Y-16290000D01*
X5355000Y-14819000D02*
X6965000Y-16431000D01*
X22270000Y-11205000D02*
X25990000Y-11205000D01*
X22270000Y-12925000D02*
X25990000Y-12925000D01*
X34880000Y-35150000D02*
X31160000Y-35150000D01*
X34880000Y-33430000D02*
X31160000Y-33430000D01*
X34880000Y-23720000D02*
X31160000Y-23720000D01*
X34880000Y-22000000D02*
X31160000Y-22000000D01*
X24640000Y-54990000D02*
X29970000Y-54990000D01*
X29970000Y-54990000D02*
X29970000Y-45340000D01*
X29970000Y-45340000D02*
X24640000Y-45340000D01*
X24640000Y-45340000D02*
X24640000Y-54990000D01*
X27305000Y-55035000D02*
X27305000Y-54990000D01*
X27305000Y-45295000D02*
X27305000Y-45340000D01*
X24640000Y-53500500D02*
X29970000Y-53500500D01*
X34820000Y-8310000D02*
X31220000Y-8310000D01*
X35344184Y-9037205D02*
G75*
G03X34820000Y-8310000I-2324184J-1122795D01*
G01*
X35376400Y-11258807D02*
G75*
G02X33020000Y-12760000I-2356400J1098807D01*
G01*
X30663600Y-11258807D02*
G75*
G03X33020000Y-12760000I2356400J1098807D01*
G01*
X30695816Y-9037205D02*
G75*
G02X31220000Y-8310000I2324184J-1122795D01*
G01*
X34820000Y-28630000D02*
X31220000Y-28630000D01*
X35344184Y-29357205D02*
G75*
G03X34820000Y-28630000I-2324184J-1122795D01*
G01*
X35376400Y-31578807D02*
G75*
G02X33020000Y-33080000I-2356400J1098807D01*
G01*
X30663600Y-31578807D02*
G75*
G03X33020000Y-33080000I2356400J1098807D01*
G01*
X30695816Y-29357205D02*
G75*
G02X31220000Y-28630000I2324184J-1122795D01*
G01*
X14500000Y-15295000D02*
X10900000Y-15295000D01*
X15024184Y-16022205D02*
G75*
G03X14500000Y-15295000I-2324184J-1122795D01*
G01*
X15056400Y-18243807D02*
G75*
G02X12700000Y-19745000I-2356400J1098807D01*
G01*
X10343600Y-18243807D02*
G75*
G03X12700000Y-19745000I2356400J1098807D01*
G01*
X10375816Y-16022205D02*
G75*
G02X10900000Y-15295000I2324184J-1122795D01*
G01*
X23860000Y-24250000D02*
X25630000Y-24250000D01*
X25630000Y-24250000D02*
X25630000Y-13850000D01*
X25630000Y-13850000D02*
X20090000Y-13850000D01*
X20090000Y-13850000D02*
X20090000Y-24250000D01*
X20090000Y-24250000D02*
X21860000Y-24250000D01*
X21860000Y-24250000D02*
G75*
G02X23860000Y-24250000I1000000J0D01*
G01*
D17*
X31797667Y-55205381D02*
X31797667Y-55919667D01*
X31750047Y-56062524D01*
X31654809Y-56157762D01*
X31511952Y-56205381D01*
X31416714Y-56205381D01*
X32226238Y-55300619D02*
X32273857Y-55253000D01*
X32369095Y-55205381D01*
X32607191Y-55205381D01*
X32702429Y-55253000D01*
X32750048Y-55300619D01*
X32797667Y-55395857D01*
X32797667Y-55491095D01*
X32750048Y-55633952D01*
X32178619Y-56205381D01*
X32797667Y-56205381D01*
D18*
X36716305Y-51286228D02*
X36677600Y-51247523D01*
X36638895Y-51170114D01*
X36638895Y-50976590D01*
X36677600Y-50899180D01*
X36716305Y-50860476D01*
X36793714Y-50821771D01*
X36871124Y-50821771D01*
X36987238Y-50860476D01*
X37451695Y-51324933D01*
X37451695Y-50821771D01*
X37451695Y-45741771D02*
X37451695Y-46206228D01*
X37451695Y-45973999D02*
X36638895Y-45973999D01*
X36755010Y-46051409D01*
X36832419Y-46128818D01*
X36871124Y-46206228D01*
D17*
X22756905Y-55697381D02*
X22756905Y-54697381D01*
X22995000Y-54697381D01*
X23137858Y-54745000D01*
X23233096Y-54840238D01*
X23280715Y-54935476D01*
X23328334Y-55125952D01*
X23328334Y-55268810D01*
X23280715Y-55459286D01*
X23233096Y-55554524D01*
X23137858Y-55649762D01*
X22995000Y-55697381D01*
X22756905Y-55697381D01*
X23661667Y-54697381D02*
X24280715Y-54697381D01*
X23947381Y-55078333D01*
X24090239Y-55078333D01*
X24185477Y-55125952D01*
X24233096Y-55173571D01*
X24280715Y-55268810D01*
X24280715Y-55506905D01*
X24233096Y-55602143D01*
X24185477Y-55649762D01*
X24090239Y-55697381D01*
X23804524Y-55697381D01*
X23709286Y-55649762D01*
X23661667Y-55602143D01*
X18311905Y-46807381D02*
X18311905Y-45807381D01*
X18550000Y-45807381D01*
X18692858Y-45855000D01*
X18788096Y-45950238D01*
X18835715Y-46045476D01*
X18883334Y-46235952D01*
X18883334Y-46378810D01*
X18835715Y-46569286D01*
X18788096Y-46664524D01*
X18692858Y-46759762D01*
X18550000Y-46807381D01*
X18311905Y-46807381D01*
X19835715Y-46807381D02*
X19264286Y-46807381D01*
X19550000Y-46807381D02*
X19550000Y-45807381D01*
X19454762Y-45950238D01*
X19359524Y-46045476D01*
X19264286Y-46093095D01*
X28876667Y-58507381D02*
X28876667Y-59221667D01*
X28829047Y-59364524D01*
X28733809Y-59459762D01*
X28590952Y-59507381D01*
X28495714Y-59507381D01*
X29781429Y-58840714D02*
X29781429Y-59507381D01*
X29543333Y-58459762D02*
X29305238Y-59174048D01*
X29924286Y-59174048D01*
X13001667Y-55967381D02*
X13001667Y-56681667D01*
X12954047Y-56824524D01*
X12858809Y-56919762D01*
X12715952Y-56967381D01*
X12620714Y-56967381D01*
X14001667Y-56967381D02*
X13430238Y-56967381D01*
X13715952Y-56967381D02*
X13715952Y-55967381D01*
X13620714Y-56110238D01*
X13525476Y-56205476D01*
X13430238Y-56253095D01*
D18*
X17801772Y-62116305D02*
X17840477Y-62077600D01*
X17917886Y-62038895D01*
X18111410Y-62038895D01*
X18188820Y-62077600D01*
X18227524Y-62116305D01*
X18266229Y-62193714D01*
X18266229Y-62271124D01*
X18227524Y-62387238D01*
X17763067Y-62851695D01*
X18266229Y-62851695D01*
X23346229Y-62851695D02*
X22881772Y-62851695D01*
X23114001Y-62851695D02*
X23114001Y-62038895D01*
X23036591Y-62155010D01*
X22959182Y-62232419D01*
X22881772Y-62271124D01*
D17*
X14509762Y-51347619D02*
X14414524Y-51300000D01*
X14319286Y-51204762D01*
X14176429Y-51061905D01*
X14081190Y-51014286D01*
X13985952Y-51014286D01*
X14033571Y-51252381D02*
X13938333Y-51204762D01*
X13843095Y-51109524D01*
X13795476Y-50919048D01*
X13795476Y-50585714D01*
X13843095Y-50395238D01*
X13938333Y-50300000D01*
X14033571Y-50252381D01*
X14224048Y-50252381D01*
X14319286Y-50300000D01*
X14414524Y-50395238D01*
X14462143Y-50585714D01*
X14462143Y-50919048D01*
X14414524Y-51109524D01*
X14319286Y-51204762D01*
X14224048Y-51252381D01*
X14033571Y-51252381D01*
X14843095Y-50347619D02*
X14890714Y-50300000D01*
X14985952Y-50252381D01*
X15224048Y-50252381D01*
X15319286Y-50300000D01*
X15366905Y-50347619D01*
X15414524Y-50442857D01*
X15414524Y-50538095D01*
X15366905Y-50680952D01*
X14795476Y-51252381D01*
X15414524Y-51252381D01*
X21423334Y-28932143D02*
X21375715Y-28979762D01*
X21232858Y-29027381D01*
X21137620Y-29027381D01*
X20994762Y-28979762D01*
X20899524Y-28884524D01*
X20851905Y-28789286D01*
X20804286Y-28598810D01*
X20804286Y-28455952D01*
X20851905Y-28265476D01*
X20899524Y-28170238D01*
X20994762Y-28075000D01*
X21137620Y-28027381D01*
X21232858Y-28027381D01*
X21375715Y-28075000D01*
X21423334Y-28122619D01*
X22375715Y-29027381D02*
X21804286Y-29027381D01*
X22090000Y-29027381D02*
X22090000Y-28027381D01*
X21994762Y-28170238D01*
X21899524Y-28265476D01*
X21804286Y-28313095D01*
X4913334Y-11787143D02*
X4865715Y-11834762D01*
X4722858Y-11882381D01*
X4627620Y-11882381D01*
X4484762Y-11834762D01*
X4389524Y-11739524D01*
X4341905Y-11644286D01*
X4294286Y-11453810D01*
X4294286Y-11310952D01*
X4341905Y-11120476D01*
X4389524Y-11025238D01*
X4484762Y-10930000D01*
X4627620Y-10882381D01*
X4722858Y-10882381D01*
X4865715Y-10930000D01*
X4913334Y-10977619D01*
X5294286Y-10977619D02*
X5341905Y-10930000D01*
X5437143Y-10882381D01*
X5675239Y-10882381D01*
X5770477Y-10930000D01*
X5818096Y-10977619D01*
X5865715Y-11072857D01*
X5865715Y-11168095D01*
X5818096Y-11310952D01*
X5246667Y-11882381D01*
X5865715Y-11882381D01*
X4913334Y-37187143D02*
X4865715Y-37234762D01*
X4722858Y-37282381D01*
X4627620Y-37282381D01*
X4484762Y-37234762D01*
X4389524Y-37139524D01*
X4341905Y-37044286D01*
X4294286Y-36853810D01*
X4294286Y-36710952D01*
X4341905Y-36520476D01*
X4389524Y-36425238D01*
X4484762Y-36330000D01*
X4627620Y-36282381D01*
X4722858Y-36282381D01*
X4865715Y-36330000D01*
X4913334Y-36377619D01*
X5246667Y-36282381D02*
X5865715Y-36282381D01*
X5532381Y-36663333D01*
X5675239Y-36663333D01*
X5770477Y-36710952D01*
X5818096Y-36758571D01*
X5865715Y-36853810D01*
X5865715Y-37091905D01*
X5818096Y-37187143D01*
X5770477Y-37234762D01*
X5675239Y-37282381D01*
X5389524Y-37282381D01*
X5294286Y-37234762D01*
X5246667Y-37187143D01*
X18057905Y-41600381D02*
X18057905Y-40600381D01*
X18296000Y-40600381D01*
X18438858Y-40648000D01*
X18534096Y-40743238D01*
X18581715Y-40838476D01*
X18629334Y-41028952D01*
X18629334Y-41171810D01*
X18581715Y-41362286D01*
X18534096Y-41457524D01*
X18438858Y-41552762D01*
X18296000Y-41600381D01*
X18057905Y-41600381D01*
X19010286Y-40695619D02*
X19057905Y-40648000D01*
X19153143Y-40600381D01*
X19391239Y-40600381D01*
X19486477Y-40648000D01*
X19534096Y-40695619D01*
X19581715Y-40790857D01*
X19581715Y-40886095D01*
X19534096Y-41028952D01*
X18962667Y-41600381D01*
X19581715Y-41600381D01*
X24558667Y-7834381D02*
X24558667Y-8548667D01*
X24511047Y-8691524D01*
X24415809Y-8786762D01*
X24272952Y-8834381D01*
X24177714Y-8834381D01*
X24939619Y-7834381D02*
X25558667Y-7834381D01*
X25225333Y-8215333D01*
X25368191Y-8215333D01*
X25463429Y-8262952D01*
X25511048Y-8310571D01*
X25558667Y-8405810D01*
X25558667Y-8643905D01*
X25511048Y-8739143D01*
X25463429Y-8786762D01*
X25368191Y-8834381D01*
X25082476Y-8834381D01*
X24987238Y-8786762D01*
X24939619Y-8739143D01*
X12533334Y-15057381D02*
X12200000Y-14581190D01*
X11961905Y-15057381D02*
X11961905Y-14057381D01*
X12342858Y-14057381D01*
X12438096Y-14105000D01*
X12485715Y-14152619D01*
X12533334Y-14247857D01*
X12533334Y-14390714D01*
X12485715Y-14485952D01*
X12438096Y-14533571D01*
X12342858Y-14581190D01*
X11961905Y-14581190D01*
X13485715Y-15057381D02*
X12914286Y-15057381D01*
X13200000Y-15057381D02*
X13200000Y-14057381D01*
X13104762Y-14200238D01*
X13009524Y-14295476D01*
X12914286Y-14343095D01*
X12533334Y-11247381D02*
X12200000Y-10771190D01*
X11961905Y-11247381D02*
X11961905Y-10247381D01*
X12342858Y-10247381D01*
X12438096Y-10295000D01*
X12485715Y-10342619D01*
X12533334Y-10437857D01*
X12533334Y-10580714D01*
X12485715Y-10675952D01*
X12438096Y-10723571D01*
X12342858Y-10771190D01*
X11961905Y-10771190D01*
X12914286Y-10342619D02*
X12961905Y-10295000D01*
X13057143Y-10247381D01*
X13295239Y-10247381D01*
X13390477Y-10295000D01*
X13438096Y-10342619D01*
X13485715Y-10437857D01*
X13485715Y-10533095D01*
X13438096Y-10675952D01*
X12866667Y-11247381D01*
X13485715Y-11247381D01*
X12533334Y-25172381D02*
X12200000Y-24696190D01*
X11961905Y-25172381D02*
X11961905Y-24172381D01*
X12342858Y-24172381D01*
X12438096Y-24220000D01*
X12485715Y-24267619D01*
X12533334Y-24362857D01*
X12533334Y-24505714D01*
X12485715Y-24600952D01*
X12438096Y-24648571D01*
X12342858Y-24696190D01*
X11961905Y-24696190D01*
X12866667Y-24172381D02*
X13485715Y-24172381D01*
X13152381Y-24553333D01*
X13295239Y-24553333D01*
X13390477Y-24600952D01*
X13438096Y-24648571D01*
X13485715Y-24743810D01*
X13485715Y-24981905D01*
X13438096Y-25077143D01*
X13390477Y-25124762D01*
X13295239Y-25172381D01*
X13009524Y-25172381D01*
X12914286Y-25124762D01*
X12866667Y-25077143D01*
X4913334Y-29027381D02*
X4580000Y-28551190D01*
X4341905Y-29027381D02*
X4341905Y-28027381D01*
X4722858Y-28027381D01*
X4818096Y-28075000D01*
X4865715Y-28122619D01*
X4913334Y-28217857D01*
X4913334Y-28360714D01*
X4865715Y-28455952D01*
X4818096Y-28503571D01*
X4722858Y-28551190D01*
X4341905Y-28551190D01*
X5770477Y-28360714D02*
X5770477Y-29027381D01*
X5532381Y-27979762D02*
X5294286Y-28694048D01*
X5913334Y-28694048D01*
X4913334Y-32837381D02*
X4580000Y-32361190D01*
X4341905Y-32837381D02*
X4341905Y-31837381D01*
X4722858Y-31837381D01*
X4818096Y-31885000D01*
X4865715Y-31932619D01*
X4913334Y-32027857D01*
X4913334Y-32170714D01*
X4865715Y-32265952D01*
X4818096Y-32313571D01*
X4722858Y-32361190D01*
X4341905Y-32361190D01*
X5818096Y-31837381D02*
X5341905Y-31837381D01*
X5294286Y-32313571D01*
X5341905Y-32265952D01*
X5437143Y-32218333D01*
X5675239Y-32218333D01*
X5770477Y-32265952D01*
X5818096Y-32313571D01*
X5865715Y-32408810D01*
X5865715Y-32646905D01*
X5818096Y-32742143D01*
X5770477Y-32789762D01*
X5675239Y-32837381D01*
X5437143Y-32837381D01*
X5341905Y-32789762D01*
X5294286Y-32742143D01*
X22947334Y-36520381D02*
X22614000Y-36044190D01*
X22375905Y-36520381D02*
X22375905Y-35520381D01*
X22756858Y-35520381D01*
X22852096Y-35568000D01*
X22899715Y-35615619D01*
X22947334Y-35710857D01*
X22947334Y-35853714D01*
X22899715Y-35948952D01*
X22852096Y-35996571D01*
X22756858Y-36044190D01*
X22375905Y-36044190D01*
X23804477Y-35520381D02*
X23614000Y-35520381D01*
X23518762Y-35568000D01*
X23471143Y-35615619D01*
X23375905Y-35758476D01*
X23328286Y-35948952D01*
X23328286Y-36329905D01*
X23375905Y-36425143D01*
X23423524Y-36472762D01*
X23518762Y-36520381D01*
X23709239Y-36520381D01*
X23804477Y-36472762D01*
X23852096Y-36425143D01*
X23899715Y-36329905D01*
X23899715Y-36091810D01*
X23852096Y-35996571D01*
X23804477Y-35948952D01*
X23709239Y-35901333D01*
X23518762Y-35901333D01*
X23423524Y-35948952D01*
X23375905Y-35996571D01*
X23328286Y-36091810D01*
X33488334Y-21407381D02*
X33155000Y-20931190D01*
X32916905Y-21407381D02*
X32916905Y-20407381D01*
X33297858Y-20407381D01*
X33393096Y-20455000D01*
X33440715Y-20502619D01*
X33488334Y-20597857D01*
X33488334Y-20740714D01*
X33440715Y-20835952D01*
X33393096Y-20883571D01*
X33297858Y-20931190D01*
X32916905Y-20931190D01*
X33821667Y-20407381D02*
X34488334Y-20407381D01*
X34059762Y-21407381D01*
X32853334Y-17597381D02*
X32520000Y-17121190D01*
X32281905Y-17597381D02*
X32281905Y-16597381D01*
X32662858Y-16597381D01*
X32758096Y-16645000D01*
X32805715Y-16692619D01*
X32853334Y-16787857D01*
X32853334Y-16930714D01*
X32805715Y-17025952D01*
X32758096Y-17073571D01*
X32662858Y-17121190D01*
X32281905Y-17121190D01*
X33424762Y-17025952D02*
X33329524Y-16978333D01*
X33281905Y-16930714D01*
X33234286Y-16835476D01*
X33234286Y-16787857D01*
X33281905Y-16692619D01*
X33329524Y-16645000D01*
X33424762Y-16597381D01*
X33615239Y-16597381D01*
X33710477Y-16645000D01*
X33758096Y-16692619D01*
X33805715Y-16787857D01*
X33805715Y-16835476D01*
X33758096Y-16930714D01*
X33710477Y-16978333D01*
X33615239Y-17025952D01*
X33424762Y-17025952D01*
X33329524Y-17073571D01*
X33281905Y-17121190D01*
X33234286Y-17216429D01*
X33234286Y-17406905D01*
X33281905Y-17502143D01*
X33329524Y-17549762D01*
X33424762Y-17597381D01*
X33615239Y-17597381D01*
X33710477Y-17549762D01*
X33758096Y-17502143D01*
X33805715Y-17406905D01*
X33805715Y-17216429D01*
X33758096Y-17121190D01*
X33710477Y-17073571D01*
X33615239Y-17025952D01*
X28027334Y-28646381D02*
X27694000Y-28170190D01*
X27455905Y-28646381D02*
X27455905Y-27646381D01*
X27836858Y-27646381D01*
X27932096Y-27694000D01*
X27979715Y-27741619D01*
X28027334Y-27836857D01*
X28027334Y-27979714D01*
X27979715Y-28074952D01*
X27932096Y-28122571D01*
X27836858Y-28170190D01*
X27455905Y-28170190D01*
X28503524Y-28646381D02*
X28694000Y-28646381D01*
X28789239Y-28598762D01*
X28836858Y-28551143D01*
X28932096Y-28408286D01*
X28979715Y-28217810D01*
X28979715Y-27836857D01*
X28932096Y-27741619D01*
X28884477Y-27694000D01*
X28789239Y-27646381D01*
X28598762Y-27646381D01*
X28503524Y-27694000D01*
X28455905Y-27741619D01*
X28408286Y-27836857D01*
X28408286Y-28074952D01*
X28455905Y-28170190D01*
X28503524Y-28217810D01*
X28598762Y-28265429D01*
X28789239Y-28265429D01*
X28884477Y-28217810D01*
X28932096Y-28170190D01*
X28979715Y-28074952D01*
X12057143Y-29027381D02*
X11723809Y-28551190D01*
X11485714Y-29027381D02*
X11485714Y-28027381D01*
X11866667Y-28027381D01*
X11961905Y-28075000D01*
X12009524Y-28122619D01*
X12057143Y-28217857D01*
X12057143Y-28360714D01*
X12009524Y-28455952D01*
X11961905Y-28503571D01*
X11866667Y-28551190D01*
X11485714Y-28551190D01*
X13009524Y-29027381D02*
X12438095Y-29027381D01*
X12723809Y-29027381D02*
X12723809Y-28027381D01*
X12628571Y-28170238D01*
X12533333Y-28265476D01*
X12438095Y-28313095D01*
X13628571Y-28027381D02*
X13723810Y-28027381D01*
X13819048Y-28075000D01*
X13866667Y-28122619D01*
X13914286Y-28217857D01*
X13961905Y-28408333D01*
X13961905Y-28646429D01*
X13914286Y-28836905D01*
X13866667Y-28932143D01*
X13819048Y-28979762D01*
X13723810Y-29027381D01*
X13628571Y-29027381D01*
X13533333Y-28979762D01*
X13485714Y-28932143D01*
X13438095Y-28836905D01*
X13390476Y-28646429D01*
X13390476Y-28408333D01*
X13438095Y-28217857D01*
X13485714Y-28122619D01*
X13533333Y-28075000D01*
X13628571Y-28027381D01*
X12057143Y-32837381D02*
X11723809Y-32361190D01*
X11485714Y-32837381D02*
X11485714Y-31837381D01*
X11866667Y-31837381D01*
X11961905Y-31885000D01*
X12009524Y-31932619D01*
X12057143Y-32027857D01*
X12057143Y-32170714D01*
X12009524Y-32265952D01*
X11961905Y-32313571D01*
X11866667Y-32361190D01*
X11485714Y-32361190D01*
X13009524Y-32837381D02*
X12438095Y-32837381D01*
X12723809Y-32837381D02*
X12723809Y-31837381D01*
X12628571Y-31980238D01*
X12533333Y-32075476D01*
X12438095Y-32123095D01*
X13390476Y-31932619D02*
X13438095Y-31885000D01*
X13533333Y-31837381D01*
X13771429Y-31837381D01*
X13866667Y-31885000D01*
X13914286Y-31932619D01*
X13961905Y-32027857D01*
X13961905Y-32123095D01*
X13914286Y-32265952D01*
X13342857Y-32837381D01*
X13961905Y-32837381D01*
X11549143Y-40838381D02*
X11215809Y-40362190D01*
X10977714Y-40838381D02*
X10977714Y-39838381D01*
X11358667Y-39838381D01*
X11453905Y-39886000D01*
X11501524Y-39933619D01*
X11549143Y-40028857D01*
X11549143Y-40171714D01*
X11501524Y-40266952D01*
X11453905Y-40314571D01*
X11358667Y-40362190D01*
X10977714Y-40362190D01*
X12501524Y-40838381D02*
X11930095Y-40838381D01*
X12215809Y-40838381D02*
X12215809Y-39838381D01*
X12120571Y-39981238D01*
X12025333Y-40076476D01*
X11930095Y-40124095D01*
X12834857Y-39838381D02*
X13453905Y-39838381D01*
X13120571Y-40219333D01*
X13263429Y-40219333D01*
X13358667Y-40266952D01*
X13406286Y-40314571D01*
X13453905Y-40409810D01*
X13453905Y-40647905D01*
X13406286Y-40743143D01*
X13358667Y-40790762D01*
X13263429Y-40838381D01*
X12977714Y-40838381D01*
X12882476Y-40790762D01*
X12834857Y-40743143D01*
X12057143Y-36647381D02*
X11723809Y-36171190D01*
X11485714Y-36647381D02*
X11485714Y-35647381D01*
X11866667Y-35647381D01*
X11961905Y-35695000D01*
X12009524Y-35742619D01*
X12057143Y-35837857D01*
X12057143Y-35980714D01*
X12009524Y-36075952D01*
X11961905Y-36123571D01*
X11866667Y-36171190D01*
X11485714Y-36171190D01*
X13009524Y-36647381D02*
X12438095Y-36647381D01*
X12723809Y-36647381D02*
X12723809Y-35647381D01*
X12628571Y-35790238D01*
X12533333Y-35885476D01*
X12438095Y-35933095D01*
X13866667Y-35980714D02*
X13866667Y-36647381D01*
X13628571Y-35599762D02*
X13390476Y-36314048D01*
X14009524Y-36314048D01*
X3849762Y-25217381D02*
X3516428Y-24741190D01*
X3278333Y-25217381D02*
X3278333Y-24217381D01*
X3659286Y-24217381D01*
X3754524Y-24265000D01*
X3802143Y-24312619D01*
X3849762Y-24407857D01*
X3849762Y-24550714D01*
X3802143Y-24645952D01*
X3754524Y-24693571D01*
X3659286Y-24741190D01*
X3278333Y-24741190D01*
X4135476Y-24217381D02*
X4468809Y-25217381D01*
X4802143Y-24217381D01*
X5659286Y-25217381D02*
X5087857Y-25217381D01*
X5373571Y-25217381D02*
X5373571Y-24217381D01*
X5278333Y-24360238D01*
X5183095Y-24455476D01*
X5087857Y-24503095D01*
X8937667Y-5167381D02*
X8937667Y-5881667D01*
X8890047Y-6024524D01*
X8794809Y-6119762D01*
X8651952Y-6167381D01*
X8556714Y-6167381D01*
X9890048Y-5167381D02*
X9413857Y-5167381D01*
X9366238Y-5643571D01*
X9413857Y-5595952D01*
X9509095Y-5548333D01*
X9747191Y-5548333D01*
X9842429Y-5595952D01*
X9890048Y-5643571D01*
X9937667Y-5738810D01*
X9937667Y-5976905D01*
X9890048Y-6072143D01*
X9842429Y-6119762D01*
X9747191Y-6167381D01*
X9509095Y-6167381D01*
X9413857Y-6119762D01*
X9366238Y-6072143D01*
X18407143Y-13152381D02*
X18073809Y-12676190D01*
X17835714Y-13152381D02*
X17835714Y-12152381D01*
X18216667Y-12152381D01*
X18311905Y-12200000D01*
X18359524Y-12247619D01*
X18407143Y-12342857D01*
X18407143Y-12485714D01*
X18359524Y-12580952D01*
X18311905Y-12628571D01*
X18216667Y-12676190D01*
X17835714Y-12676190D01*
X19359524Y-13152381D02*
X18788095Y-13152381D01*
X19073809Y-13152381D02*
X19073809Y-12152381D01*
X18978571Y-12295238D01*
X18883333Y-12390476D01*
X18788095Y-12438095D01*
X20264286Y-12152381D02*
X19788095Y-12152381D01*
X19740476Y-12628571D01*
X19788095Y-12580952D01*
X19883333Y-12533333D01*
X20121429Y-12533333D01*
X20216667Y-12580952D01*
X20264286Y-12628571D01*
X20311905Y-12723810D01*
X20311905Y-12961905D01*
X20264286Y-13057143D01*
X20216667Y-13104762D01*
X20121429Y-13152381D01*
X19883333Y-13152381D01*
X19788095Y-13104762D01*
X19740476Y-13057143D01*
X35425143Y-36520381D02*
X35091809Y-36044190D01*
X34853714Y-36520381D02*
X34853714Y-35520381D01*
X35234667Y-35520381D01*
X35329905Y-35568000D01*
X35377524Y-35615619D01*
X35425143Y-35710857D01*
X35425143Y-35853714D01*
X35377524Y-35948952D01*
X35329905Y-35996571D01*
X35234667Y-36044190D01*
X34853714Y-36044190D01*
X36377524Y-36520381D02*
X35806095Y-36520381D01*
X36091809Y-36520381D02*
X36091809Y-35520381D01*
X35996571Y-35663238D01*
X35901333Y-35758476D01*
X35806095Y-35806095D01*
X37234667Y-35520381D02*
X37044190Y-35520381D01*
X36948952Y-35568000D01*
X36901333Y-35615619D01*
X36806095Y-35758476D01*
X36758476Y-35948952D01*
X36758476Y-36329905D01*
X36806095Y-36425143D01*
X36853714Y-36472762D01*
X36948952Y-36520381D01*
X37139429Y-36520381D01*
X37234667Y-36472762D01*
X37282286Y-36425143D01*
X37329905Y-36329905D01*
X37329905Y-36091810D01*
X37282286Y-35996571D01*
X37234667Y-35948952D01*
X37139429Y-35901333D01*
X36948952Y-35901333D01*
X36853714Y-35948952D01*
X36806095Y-35996571D01*
X36758476Y-36091810D01*
X32377143Y-25344381D02*
X32043809Y-24868190D01*
X31805714Y-25344381D02*
X31805714Y-24344381D01*
X32186667Y-24344381D01*
X32281905Y-24392000D01*
X32329524Y-24439619D01*
X32377143Y-24534857D01*
X32377143Y-24677714D01*
X32329524Y-24772952D01*
X32281905Y-24820571D01*
X32186667Y-24868190D01*
X31805714Y-24868190D01*
X33329524Y-25344381D02*
X32758095Y-25344381D01*
X33043809Y-25344381D02*
X33043809Y-24344381D01*
X32948571Y-24487238D01*
X32853333Y-24582476D01*
X32758095Y-24630095D01*
X33662857Y-24344381D02*
X34329524Y-24344381D01*
X33900952Y-25344381D01*
X29106905Y-56332381D02*
X29106905Y-55332381D01*
X29345000Y-55332381D01*
X29487858Y-55380000D01*
X29583096Y-55475238D01*
X29630715Y-55570476D01*
X29678334Y-55760952D01*
X29678334Y-55903810D01*
X29630715Y-56094286D01*
X29583096Y-56189524D01*
X29487858Y-56284762D01*
X29345000Y-56332381D01*
X29106905Y-56332381D01*
X30535477Y-55665714D02*
X30535477Y-56332381D01*
X30297381Y-55284762D02*
X30059286Y-55999048D01*
X30678334Y-55999048D01*
X32686667Y-43902381D02*
X32686667Y-44616667D01*
X32639047Y-44759524D01*
X32543809Y-44854762D01*
X32400952Y-44902381D01*
X32305714Y-44902381D01*
X33591429Y-43902381D02*
X33400952Y-43902381D01*
X33305714Y-43950000D01*
X33258095Y-43997619D01*
X33162857Y-44140476D01*
X33115238Y-44330952D01*
X33115238Y-44711905D01*
X33162857Y-44807143D01*
X33210476Y-44854762D01*
X33305714Y-44902381D01*
X33496191Y-44902381D01*
X33591429Y-44854762D01*
X33639048Y-44807143D01*
X33686667Y-44711905D01*
X33686667Y-44473810D01*
X33639048Y-44378571D01*
X33591429Y-44330952D01*
X33496191Y-44283333D01*
X33305714Y-44283333D01*
X33210476Y-44330952D01*
X33162857Y-44378571D01*
X33115238Y-44473810D01*
X32924762Y-14267619D02*
X32829524Y-14220000D01*
X32734286Y-14124762D01*
X32591429Y-13981905D01*
X32496190Y-13934286D01*
X32400952Y-13934286D01*
X32448571Y-14172381D02*
X32353333Y-14124762D01*
X32258095Y-14029524D01*
X32210476Y-13839048D01*
X32210476Y-13505714D01*
X32258095Y-13315238D01*
X32353333Y-13220000D01*
X32448571Y-13172381D01*
X32639048Y-13172381D01*
X32734286Y-13220000D01*
X32829524Y-13315238D01*
X32877143Y-13505714D01*
X32877143Y-13839048D01*
X32829524Y-14029524D01*
X32734286Y-14124762D01*
X32639048Y-14172381D01*
X32448571Y-14172381D01*
X33210476Y-13172381D02*
X33829524Y-13172381D01*
X33496190Y-13553333D01*
X33639048Y-13553333D01*
X33734286Y-13600952D01*
X33781905Y-13648571D01*
X33829524Y-13743810D01*
X33829524Y-13981905D01*
X33781905Y-14077143D01*
X33734286Y-14124762D01*
X33639048Y-14172381D01*
X33353333Y-14172381D01*
X33258095Y-14124762D01*
X33210476Y-14077143D01*
X35972762Y-33059619D02*
X35877524Y-33012000D01*
X35782286Y-32916762D01*
X35639429Y-32773905D01*
X35544190Y-32726286D01*
X35448952Y-32726286D01*
X35496571Y-32964381D02*
X35401333Y-32916762D01*
X35306095Y-32821524D01*
X35258476Y-32631048D01*
X35258476Y-32297714D01*
X35306095Y-32107238D01*
X35401333Y-32012000D01*
X35496571Y-31964381D01*
X35687048Y-31964381D01*
X35782286Y-32012000D01*
X35877524Y-32107238D01*
X35925143Y-32297714D01*
X35925143Y-32631048D01*
X35877524Y-32821524D01*
X35782286Y-32916762D01*
X35687048Y-32964381D01*
X35496571Y-32964381D01*
X36782286Y-32297714D02*
X36782286Y-32964381D01*
X36544190Y-31916762D02*
X36306095Y-32631048D01*
X36925143Y-32631048D01*
X11938095Y-20157381D02*
X11938095Y-20966905D01*
X11985714Y-21062143D01*
X12033333Y-21109762D01*
X12128571Y-21157381D01*
X12319048Y-21157381D01*
X12414286Y-21109762D01*
X12461905Y-21062143D01*
X12509524Y-20966905D01*
X12509524Y-20157381D01*
X13509524Y-21157381D02*
X12938095Y-21157381D01*
X13223809Y-21157381D02*
X13223809Y-20157381D01*
X13128571Y-20300238D01*
X13033333Y-20395476D01*
X12938095Y-20443095D01*
X30781667Y-62317381D02*
X30781667Y-63031667D01*
X30734047Y-63174524D01*
X30638809Y-63269762D01*
X30495952Y-63317381D01*
X30400714Y-63317381D01*
X31162619Y-62317381D02*
X31829286Y-62317381D01*
X31400714Y-63317381D01*
X25908095Y-24852381D02*
X25908095Y-25661905D01*
X25955714Y-25757143D01*
X26003333Y-25804762D01*
X26098571Y-25852381D01*
X26289048Y-25852381D01*
X26384286Y-25804762D01*
X26431905Y-25757143D01*
X26479524Y-25661905D01*
X26479524Y-24852381D01*
X26908095Y-24947619D02*
X26955714Y-24900000D01*
X27050952Y-24852381D01*
X27289048Y-24852381D01*
X27384286Y-24900000D01*
X27431905Y-24947619D01*
X27479524Y-25042857D01*
X27479524Y-25138095D01*
X27431905Y-25280952D01*
X26860476Y-25852381D01*
X27479524Y-25852381D01*
X24336477Y-28916381D02*
X24336477Y-29630667D01*
X24288857Y-29773524D01*
X24193619Y-29868762D01*
X24050762Y-29916381D01*
X23955524Y-29916381D01*
X25336477Y-29916381D02*
X24765048Y-29916381D01*
X25050762Y-29916381D02*
X25050762Y-28916381D01*
X24955524Y-29059238D01*
X24860286Y-29154476D01*
X24765048Y-29202095D01*
X25955524Y-28916381D02*
X26050763Y-28916381D01*
X26146001Y-28964000D01*
X26193620Y-29011619D01*
X26241239Y-29106857D01*
X26288858Y-29297333D01*
X26288858Y-29535429D01*
X26241239Y-29725905D01*
X26193620Y-29821143D01*
X26146001Y-29868762D01*
X26050763Y-29916381D01*
X25955524Y-29916381D01*
X25860286Y-29868762D01*
X25812667Y-29821143D01*
X25765048Y-29725905D01*
X25717429Y-29535429D01*
X25717429Y-29297333D01*
X25765048Y-29106857D01*
X25812667Y-29011619D01*
X25860286Y-28964000D01*
X25955524Y-28916381D01*
M02*
