G04 #@! TF.FileFunction,Soldermask,Top*
%FSLAX46Y46*%
G04 Gerber Fmt 4.6, Leading zero omitted, Abs format (unit mm)*
G04 Created by KiCad (PCBNEW 4.0.6-e0-6349~53~ubuntu16.04.1) date Wed May 31 11:55:21 2017*
%MOMM*%
%LPD*%
G01*
G04 APERTURE LIST*
%ADD10C,0.100000*%
%ADD11C,3.556000*%
%ADD12C,2.413000*%
%ADD13O,2.413000X2.413000*%
%ADD14C,5.588000*%
%ADD15O,1.800000X1.800000*%
%ADD16C,1.905000*%
%ADD17C,1.600000*%
%ADD18R,1.800000X1.800000*%
%ADD19C,1.800000*%
%ADD20O,1.998980X1.998980*%
%ADD21R,1.998980X1.998980*%
%ADD22C,1.400000*%
%ADD23O,1.400000X1.400000*%
%ADD24C,1.440000*%
%ADD25C,1.998980*%
%ADD26C,2.794000*%
%ADD27O,2.794000X2.794000*%
%ADD28C,1.520000*%
%ADD29R,1.520000X1.520000*%
%ADD30C,6.400000*%
%ADD31C,3.200000*%
%ADD32R,1.600000X1.600000*%
%ADD33O,1.600000X1.600000*%
G04 APERTURE END LIST*
D10*
D11*
X34036000Y-47498000D03*
X34036000Y-52578000D03*
D12*
X22225000Y-53340000D03*
D13*
X12065000Y-53340000D03*
D12*
X13335000Y-43815000D03*
D13*
X23495000Y-43815000D03*
D11*
X27305000Y-60960000D03*
X21590000Y-59436000D03*
X16510000Y-59436000D03*
D14*
X19050000Y-31750000D03*
D15*
X16510000Y-49530000D03*
X19050000Y-49530000D03*
D16*
X21590000Y-49530000D03*
D17*
X19050000Y-26670000D03*
X24050000Y-26670000D03*
X2540000Y-8890000D03*
X7540000Y-8890000D03*
X2540000Y-34290000D03*
X7540000Y-34290000D03*
D18*
X17780000Y-38100000D03*
D19*
X20320000Y-38100000D03*
D20*
X15240000Y-3810000D03*
D21*
X22860000Y-3810000D03*
D20*
X20320000Y-3810000D03*
X17780000Y-3810000D03*
D22*
X10160000Y-12700000D03*
D23*
X15240000Y-12700000D03*
D22*
X15240000Y-8890000D03*
D23*
X10160000Y-8890000D03*
D22*
X15240000Y-22860000D03*
D23*
X10160000Y-22860000D03*
D22*
X7620000Y-26670000D03*
D23*
X2540000Y-26670000D03*
D22*
X2540000Y-30480000D03*
D23*
X7620000Y-30480000D03*
D22*
X27940000Y-34290000D03*
D23*
X22860000Y-34290000D03*
D22*
X35560000Y-19050000D03*
D23*
X30480000Y-19050000D03*
D22*
X30480000Y-15240000D03*
D23*
X35560000Y-15240000D03*
D22*
X35560000Y-26670000D03*
D23*
X30480000Y-26670000D03*
D22*
X10160000Y-26670000D03*
D23*
X15240000Y-26670000D03*
D22*
X15240000Y-30480000D03*
D23*
X10160000Y-30480000D03*
D22*
X15240000Y-38100000D03*
D23*
X10160000Y-38100000D03*
D22*
X10160000Y-34290000D03*
D23*
X15240000Y-34290000D03*
D24*
X5080000Y-16510000D03*
X5080000Y-19050000D03*
X5080000Y-21590000D03*
D25*
X10160000Y-3810000D03*
D22*
X21590000Y-12065000D03*
D23*
X26670000Y-12065000D03*
D22*
X35560000Y-34290000D03*
D23*
X30480000Y-34290000D03*
D22*
X35560000Y-22860000D03*
D23*
X30480000Y-22860000D03*
D26*
X27305000Y-56515000D03*
D27*
X27305000Y-43815000D03*
D11*
X31050000Y-42750000D03*
D28*
X33020000Y-10160000D03*
X30480000Y-10160000D03*
D29*
X35560000Y-10160000D03*
D28*
X33020000Y-30480000D03*
X30480000Y-30480000D03*
D29*
X35560000Y-30480000D03*
D28*
X12700000Y-17145000D03*
X10160000Y-17145000D03*
D29*
X15240000Y-17145000D03*
D30*
X34290000Y-59690000D03*
D31*
X3810000Y-59690000D03*
X3810000Y-3810000D03*
X34290000Y-3810000D03*
D32*
X26670000Y-22860000D03*
D33*
X19050000Y-15240000D03*
X26670000Y-20320000D03*
X19050000Y-17780000D03*
X26670000Y-17780000D03*
X19050000Y-20320000D03*
X26670000Y-15240000D03*
X19050000Y-22860000D03*
D25*
X27178000Y-30988000D03*
M02*
