M48
;DRILL file {KiCad 4.0.6-e0-6349~53~ubuntu16.04.1} date Wed May 31 11:56:13 2017
;FORMAT={-:-/ absolute / inch / decimal}
FMAT,2
INCH,TZ
T1C0.016
T2C0.028
T3C0.031
T4C0.035
T5C0.039
T6C0.043
T7C0.047
T8C0.051
T9C0.070
T10C0.126
%
G90
G05
M72
T1
X5.805Y-3.405
X6.585Y-2.555
X6.585Y-2.705
T2
X5.385Y-2.905
X5.385Y-3.055
X5.585Y-2.905
X5.585Y-3.055
X5.685Y-2.205
X5.685Y-2.355
X5.685Y-2.755
X5.685Y-2.905
X5.685Y-3.055
X5.685Y-3.205
X5.685Y-3.355
X5.885Y-2.205
X5.885Y-2.355
X5.885Y-2.755
X5.885Y-2.905
X5.885Y-3.055
X5.885Y-3.205
X5.885Y-3.355
X6.135Y-2.33
X6.185Y-3.205
X6.335Y-2.33
X6.385Y-3.205
X6.485Y-2.455
X6.485Y-2.605
X6.485Y-2.755
X6.485Y-2.905
X6.485Y-3.205
X6.685Y-2.455
X6.685Y-2.605
X6.685Y-2.755
X6.685Y-2.905
X6.685Y-3.205
T3
X5.385Y-2.205
X5.385Y-3.205
X5.485Y-2.505
X5.485Y-2.605
X5.485Y-2.705
X5.5819Y-2.205
X5.5819Y-3.205
X5.685Y-2.53
X5.785Y-2.53
X5.885Y-2.53
X6.035Y-2.455
X6.035Y-2.555
X6.035Y-2.655
X6.035Y-2.755
X6.035Y-2.905
X6.2319Y-2.905
X6.335Y-2.455
X6.335Y-2.555
X6.335Y-2.655
X6.335Y-2.755
X6.485Y-2.255
X6.485Y-3.055
X6.585Y-2.255
X6.585Y-3.055
X6.685Y-2.255
X6.685Y-3.055
T4
X5.985Y-3.355
X6.085Y-3.355
T5
X5.935Y-3.805
X6.035Y-3.805
X6.135Y-3.805
T6
X5.685Y-2.005
X5.885Y-2.005
X5.985Y-2.005
X6.085Y-2.005
X6.185Y-2.005
X6.355Y-3.075
T7
X5.76Y-3.955
X5.81Y-3.58
X6.16Y-3.955
X6.21Y-3.58
T8
X6.36Y-3.58
X6.36Y-4.08
T9
X5.935Y-4.195
X6.135Y-4.195
X6.36Y-4.255
X6.5074Y-3.5381
X6.625Y-3.725
X6.625Y-3.925
T10
X6.635Y-4.205
T0
M30
